<svg width="24" height="23" viewBox="0 0 24 23" fill="none" xmlns="http://www.w3.org/2000/svg">
<path d="M20.6897 0H0V14.4828H20.6897V0Z" transform="translate(0 5.7931)" fill="#E7EEF4"/>
<path d="M20.6897 0H0V5.7931H20.6897V0Z" fill="#5E6D82"/>
<path d="M1.24138 2.48276C1.92697 2.48276 2.48276 1.92697 2.48276 1.24138C2.48276 0.555784 1.92697 0 1.24138 0C0.555784 0 0 0.555784 0 1.24138C0 1.92697 0.555784 2.48276 1.24138 2.48276Z" transform="translate(1.65515 1.65517)" fill="#EB5757"/>
<path d="M1.24138 2.48276C1.92697 2.48276 2.48276 1.92697 2.48276 1.24138C2.48276 0.555784 1.92697 0 1.24138 0C0.555784 0 0 0.555784 0 1.24138C0 1.92697 0.555784 2.48276 1.24138 2.48276Z" transform="translate(5.37933 1.65517)" fill="#F2C94C"/>
<path d="M1.24138 2.48276C1.92697 2.48276 2.48276 1.92697 2.48276 1.24138C2.48276 0.555784 1.92697 0 1.24138 0C0.555784 0 0 0.555784 0 1.24138C0 1.92697 0.555784 2.48276 1.24138 2.48276Z" transform="translate(9.10345 1.65517)" fill="#27AE60"/>
<path d="M4.96552 9.93103C7.7079 9.93103 9.93103 7.7079 9.93103 4.96552C9.93103 2.22314 7.7079 0 4.96552 0C2.22314 0 0 2.22314 0 4.96552C0 7.7079 2.22314 9.93103 4.96552 9.93103Z" transform="translate(14.069 12.4138)" fill="#27AE60"/>
<path d="M5.20199 0.0743044C5.01371 -0.0564542 4.75633 -0.0101094 4.62599 0.177753L2.3104 3.50465L0.676334 2.16313C0.500058 2.01789 0.238955 2.04396 0.0941279 2.22065C-0.0511135 2.39734 -0.0254583 2.65803 0.151645 2.80286L2.13206 4.42865C2.20654 4.48948 2.29923 4.52258 2.3944 4.52258C2.41302 4.52258 2.43206 4.52134 2.45109 4.51886C2.5653 4.50272 2.66792 4.44024 2.73413 4.34548L5.30544 0.650717C5.43578 0.462855 5.38944 0.205063 5.20199 0.0743044Z" transform="translate(16.5515 14.8963)" fill="white"/>
</svg>
