<?xml version="1.0" encoding="UTF-8"?>
<svg width="576px" height="122px" viewBox="0 0 576 122" version="1.1" xmlns="http://www.w3.org/2000/svg" xmlns:xlink="http://www.w3.org/1999/xlink">
    <!-- Generator: Sketch 49.1 (51147) - http://www.bohemiancoding.com/sketch -->
    <title>Shape</title>
    <desc>Created with Sketch.</desc>
    <defs></defs>
    <g id="Page-1" stroke="none" stroke-width="1" fill="none" fill-rule="evenodd">
        <g id="fr-logo.svg" fill="#000000" fill-rule="nonzero">
            <path d="M129.3,51.3 L165.7,51.3 L165.7,60.8 L140.4,60.8 L140.4,69.8 L161.9,69.8 L161.9,78.5 L140.4,78.5 L140.4,97 L129.3,97 L129.3,51.3 Z M168.4,74.2 C168.4,61.1 177.6,50.3 192.8,50.3 C208.1,50.3 217.4,61.1 217.4,74.2 C217.4,87.3 208.2,98.1 192.8,98.1 C177.6,98.1 168.4,87.3 168.4,74.2 Z M205.9,74.2 C205.9,66.3 200.2,61 192.8,61 C185.5,61 179.8,66.3 179.8,74.2 C179.8,82.1 185.5,87.4 192.8,87.4 C200.2,87.4 205.9,82.1 205.9,74.2 Z M225.1,51.3 L246.7,51.3 C258.3,51.3 265.7,57.3 265.7,67.3 C265.7,73.7 262.8,78.3 258.1,81 L258.1,82 L268.4,96.4 L268.4,97.2 L255.8,97.2 L246.8,83.8 L236.2,83.8 L236.2,97.2 L225.1,97.2 L225.1,51.3 Z M246.2,60.8 L236.1,60.8 L236.1,74.5 L246.3,74.5 C251.4,74.5 254.2,72.2 254.2,67.6 C254.3,63.3 251.4,60.8 246.2,60.8 Z M295.7,69.9 L318.8,69.9 L318.8,75 C318.8,88.4 311.5,98.1 296.9,98.1 C281.6,98.1 272.4,87.3 272.4,74.2 C272.4,61.1 281.6,50.3 296.9,50.3 C309,50.3 314.2,56 314.2,56 L307.6,64.4 C307.6,64.4 303.2,60.9 296.8,60.9 C289.4,60.9 283.9,66.2 283.9,74.2 C283.9,82.1 289.4,87.5 296.8,87.5 C303.4,87.5 306.8,83.5 307,79 L307,78.5 L295.9,78.5 L295.9,69.9 L295.7,69.9 Z M358.1,78.6 L338,78.6 L338,87.6 L363.3,87.6 L363.3,97.1 L326.9,97.1 L326.9,51.3 L363.3,51.3 L363.3,60.8 L338,60.8 L338,69.8 L358.2,69.8 L358.2,78.6 L358.1,78.6 Z M372.4,51.3 L394,51.3 C405.6,51.3 413,57.3 413,67.3 C413,73.7 410.1,78.3 405.4,81 L405.4,82 L415.7,96.4 L415.7,97.2 L403.1,97.2 L394.1,83.8 L383.5,83.8 L383.5,97.2 L372.4,97.2 L372.4,51.3 Z M393.5,60.8 L383.4,60.8 L383.4,74.5 L393.6,74.5 C398.7,74.5 401.5,72.2 401.5,67.6 C401.5,63.3 398.6,60.8 393.5,60.8 Z M419.1,74.2 C419.1,61.1 428.3,50.3 443.5,50.3 C458.8,50.3 468.1,61.1 468.1,74.2 C468.1,87.3 458.9,98.1 443.5,98.1 C428.3,98.1 419.1,87.3 419.1,74.2 Z M456.7,74.2 C456.7,66.3 451,61 443.6,61 C436.3,61 430.6,66.3 430.6,74.2 C430.6,82.1 436.3,87.4 443.6,87.4 C450.9,87.4 456.7,82.1 456.7,74.2 Z M515,92.5 C515,92.5 509.9,98.1 498.7,98.1 C483.4,98.1 474.1,87.3 474.1,74.2 C474.1,61.1 483.3,50.3 498.7,50.3 C510,50.3 515,55.9 515,55.9 L508.7,64.4 C508.7,64.4 504,61 498.9,61 C491.1,61 485.6,66.3 485.6,74.3 C485.6,82.2 491.1,87.6 498.9,87.6 C505.4,87.6 508.7,84.2 508.7,84.2 L515,92.5 Z M531.9,71 L550.6,51.3 L564.1,51.3 L564.1,52.3 L546.5,71 L564.1,96 L564.1,97.1 L550.7,97.1 C546.7,91.1 542.8,85.1 538.8,79.1 L531.9,86.4 L531.9,97.1 L520.8,97.1 L520.8,51.3 L531.9,51.3 L531.9,71 Z M572.1,50.6 C572.8,50.6 573.4,50.8 574,51.1 C574.6,51.4 575.1,51.9 575.5,52.6 C575.9,53.2 576,53.9 576,54.6 C576,55.3 575.8,55.9 575.5,56.6 C575.2,57.3 574.7,57.7 574,58.1 C573.4,58.4 572.7,58.6 572,58.6 C571.3,58.6 570.7,58.4 570,58.1 C569.4,57.8 568.9,57.3 568.5,56.6 C568.1,55.9 568,55.3 568,54.6 C568,53.9 568.2,53.3 568.5,52.6 C568.8,51.9 569.3,51.5 570,51.1 C570.7,50.8 571.4,50.6 572.1,50.6 Z M572.1,51.4 C571.6,51.4 571,51.5 570.5,51.8 C570,52.1 569.6,52.5 569.3,53 C569,53.5 568.9,54 568.9,54.6 C568.9,55.2 569,55.7 569.3,56.2 C569.6,56.7 570,57.1 570.5,57.4 C571,57.7 571.5,57.8 572.1,57.8 C572.7,57.8 573.2,57.7 573.7,57.4 C574.2,57.1 574.6,56.7 574.9,56.2 C575.2,55.7 575.3,55.2 575.3,54.6 C575.3,54 575.2,53.5 574.9,53 C574.6,52.5 574.2,52.1 573.7,51.8 C573.1,51.5 572.6,51.4 572.1,51.4 Z M570.3,56.7 L570.3,52.5 L572.4,52.5 C572.7,52.5 572.9,52.6 573.1,52.7 C573.3,52.8 573.4,52.9 573.5,53.1 C573.6,53.3 573.7,53.5 573.7,53.7 C573.7,54 573.6,54.3 573.4,54.5 C573.2,54.7 572.9,54.8 572.6,54.9 C572.7,54.9 572.8,55 572.9,55.1 L573.2,55.4 C573.2,55.4 573.3,55.6 573.5,55.9 L574,56.7 L573,56.7 L572.7,56 C572.5,55.5 572.3,55.3 572.1,55.1 C571.9,55 571.8,54.9 571.5,54.9 L571.3,54.9 L571.3,56.6 L570.3,56.6 L570.3,56.7 Z M571.1,54.3 L571.4,54.3 C571.9,54.3 572.2,54.3 572.3,54.2 C572.4,54.2 572.5,54.1 572.6,54 C572.7,53.9 572.7,53.8 572.7,53.7 C572.7,53.6 572.7,53.5 572.6,53.4 C572.5,53.3 572.4,53.2 572.3,53.2 C572.2,53.2 571.9,53.1 571.4,53.1 L571.1,53.1 L571.1,54.3 Z M73.4,10.5 L37.3,73.9 L49,94.6 L85,31 L73.4,10.5 Z M91.2,41.9 L55.2,105.4 L64.5,122 L82.2,122 L109.4,74.1 L91.2,41.9 Z M32.6,11.5 L0.1,68.8 L28.3,68.8 L67.4,0 L32.6,11.5 Z M52.3,122 L28.1,79.5 L0,79.4 L24.1,122 L52.3,122 Z" id="Shape"></path>
        </g>
    </g>
</svg>