<svg width="1125" height="1125" viewBox="0 0 1125 1125" fill="none" xmlns="http://www.w3.org/2000/svg">
<path d="M1122.91 2.06152H3.06201V1121.91H1122.91V2.06152Z" fill="#B3282D"/>
<path d="M316.016 459.458C296.243 447.633 277.975 441.186 218.006 441.186H125.15V814.756H196.296V677.191H235.2C274.321 677.191 289.579 672.891 305.703 664.723C344.177 645.376 366.53 605.616 366.53 556.182C366.745 513.191 348.904 478.802 316.016 459.458ZM280.553 596.586C270.879 612.283 262.28 615.933 233.265 615.933H196.295V502.017H241.432C271.311 502.017 289.15 523.081 289.15 557.9C289.149 575.524 286.571 586.485 280.553 596.586ZM125.149 850.006H141.486V1001.54H125.149V850.006ZM310.855 888.694C298.606 888.694 288.503 893.638 280.336 903.955C271.739 914.916 268.087 926.959 268.087 945.442C268.087 981.98 285.065 1003.9 313.224 1003.9C326.333 1003.9 338.582 998.958 347.614 990.147L341.382 979.186C334.288 986.277 326.334 989.504 316.447 989.504C306.129 989.504 296.884 985.632 291.082 975.958C287.645 970.157 286.355 962.206 286.355 951.888V949.31H349.762V946.943C349.335 920.724 346.971 910.192 338.158 900.518C331.492 892.994 322.037 888.694 310.855 888.694ZM286.571 936.414C287.429 913.629 295.599 902.233 309.997 902.233C317.737 902.233 324.828 905.89 328.272 911.914C331.276 917.28 332.782 924.59 332.998 936.414H286.571ZM444.339 905.248C446.061 909.113 446.7 913.629 446.7 918.144V1001.54H430.581V927.17C430.581 915.564 429.718 912.552 426.927 908.899C424.774 906.106 420.479 904.17 415.752 904.17C407.58 904.17 394.899 911.263 387.593 919.644V1001.54H372.114V916.638C372.114 900.949 368.251 893.423 368.251 893.423L383.723 888.694C383.723 888.694 387.375 896.867 387.375 905.89C397.909 894.497 408.654 888.91 419.404 888.91C430.368 889.129 440.252 895.574 444.339 905.248ZM387.593 463.755C387.593 439.039 406.94 419.266 430.15 419.266C452.936 419.266 471.204 439.252 471.204 463.755C471.204 488.476 452.289 508.465 429.079 508.465C406.508 508.465 387.593 488.476 387.593 463.755ZM395.331 544.36L463.254 532.964V814.54H395.331V544.36ZM490.766 891.709H516.988L512.046 904.813H490.119V975.75C490.119 987.999 493.131 992.078 503.233 992.078C507.744 992.078 506.456 992.078 509.465 990.577L511.613 1001.54C506.455 1004.34 504.52 1005.19 497.425 1005.19C492.054 1005.19 487.972 1004.12 484.102 1002.18C477.011 998.528 474.215 991.435 474.215 980.26V904.813H460.89V891.709H474.215V850.006H490.55V891.709H490.766ZM247.667 850.006H231.761V886.543C231.761 894.498 231.972 903.526 231.972 903.526C225.955 894.711 215.853 889.557 204.46 889.557C197.153 889.557 191.353 891.488 184.902 896.432C170.932 906.748 163.841 923.947 163.841 947.372C163.841 982.408 178.886 1003.04 205.323 1003.04C217.142 1003.04 224.881 999.392 232.187 990.147C232.403 995.956 234.34 1001.32 234.34 1001.32H250.673C248.309 994.877 247.666 984.776 247.666 965.863V850.006H247.667ZM231.545 973.595C231.545 973.595 229.609 978.331 225.313 981.554C218.865 986.712 214.136 988.642 205.75 988.642C196.295 988.642 190.062 984.991 185.333 975.75C182.108 969.3 181.25 959.84 181.25 946.943C181.25 931.469 182.972 923.517 187.698 915.136C191.995 907.612 198.659 903.741 206.613 903.741C218.649 903.741 226.171 907.392 231.329 915.136V973.594L231.545 973.595ZM723.117 891.488L688.294 1005.41C681.414 1027.54 673.249 1042.17 655.408 1046.68L650.679 1035.07C660.567 1031.63 665.724 1026.91 670.244 1014.86C668.522 1006.27 667.666 1002.4 667.666 1002.4C666.369 995.306 661 973.811 657.563 962.85L635.417 894.069L651.112 888.266L671.96 959.627C674.967 969.942 677.977 986.925 677.977 986.925H678.407C678.407 986.925 682.277 972.737 684.641 963.708L704.633 891.488H723.117ZM736.872 981.554C736.872 977.681 734.721 976.175 730.421 976.175H723.976V994.45H727.204V986.496H729.135L733.65 994.234H736.874L732.363 986.277C735.155 986.062 736.872 984.561 736.872 981.554ZM727.417 983.913V978.753H730.21C731.927 978.753 733.648 979.187 733.648 981.333C733.648 983.697 731.926 984.131 730.21 984.131H727.417V983.913ZM729.997 969.3C721.616 969.3 714.736 976.61 714.736 985.419C714.736 994.234 721.616 1001.54 729.997 1001.54C738.378 1001.54 745.258 994.234 745.258 985.419C745.042 976.389 738.378 969.3 729.997 969.3ZM729.997 998.32C723.546 998.32 718.601 992.941 718.601 985.419C718.601 977.897 723.759 972.523 729.997 972.523C736.442 972.523 741.385 977.897 741.385 985.419C741.385 992.941 736.227 998.32 729.997 998.32ZM894.428 744.466L857.886 744.037C850.792 744.037 846.711 741.243 846.711 737.591C846.711 730.069 856.38 723.618 873.575 715.022C878.733 715.667 880.664 715.667 883.678 715.667C938.92 715.667 979.753 681.278 979.753 633.99C979.753 615.719 974.595 601.747 964.497 588.85C968.578 589.285 975.674 590.356 982.333 590.356C1001.04 590.356 1015.22 584.339 1030.05 569.938L1001.68 524.153C985.991 539.201 966.648 547.798 947.944 547.798C939.35 547.798 930.106 545.652 915.917 541.778C897.218 537.051 883.895 534.898 869.276 534.898C802.865 534.898 759.656 571.439 759.656 627.973C759.656 668.811 777.926 693.96 815.546 704.272C772.773 716.101 767.828 732.863 767.828 750.488C767.828 769.401 775.35 781.66 787.599 786.384C799.85 791.758 819.626 794.335 850.148 794.981L879.163 795.624C906.035 796.058 926.883 803.796 926.883 828.512C926.883 839.906 920.217 850.008 910.114 856.458C899.369 863.549 884.751 865.484 867.559 865.484C836.174 865.484 818.768 853.659 818.768 831.524C818.768 824.002 819.197 820.349 821.777 813.898H758.798C756.22 819.265 752.781 826.794 752.781 841.842C752.781 860.538 759.869 876.662 774.057 890.631C797.486 913.846 835.532 920.296 872.504 920.296C913.128 920.296 952.246 910.622 975.028 884.825C989.213 868.706 995.877 851.078 995.877 827.871C995.877 803.145 988.783 784.24 973.523 769.192C954.823 751.346 933.976 744.9 894.428 744.466ZM828.007 628.187C828.007 602.394 842.841 587.347 868.631 587.347C894.639 587.347 909.684 602.394 909.684 628.187C909.684 653.55 895.069 667.305 867.989 667.305C844.131 667.522 828.007 656.343 828.007 628.187ZM633.915 595.514C620.155 595.514 602.53 605.188 586.627 620.235V814.756H518.493V615.29C518.493 591.644 515.481 569.073 509.465 550.809L569.862 532.538C575.879 543.929 579.536 555.535 579.536 566.928C589.639 559.403 598.235 552.954 609.41 546.507C623.17 538.985 640.795 534.687 656.056 534.687C685.071 534.687 710.435 550.809 718.602 574.453C722.259 584.554 723.76 596.378 723.76 613.569V814.54H656.7V635.495C656.7 604.758 651.756 595.514 633.915 595.514ZM599.094 904.605V975.529C599.094 987.783 602.106 991.869 612.209 991.869C616.719 991.869 615.427 991.869 618.44 990.363L620.589 1001.32C615.426 1004.12 613.495 1004.98 606.407 1004.98C601.028 1004.98 596.942 1003.9 593.076 1001.97C585.98 998.32 583.187 991.219 583.187 980.044V904.605H569.861V891.488H583.187V849.792H599.522V891.488H625.103L620.154 904.605H599.094ZM534.184 891.917L550.732 889.129V1001.54H534.184V891.917Z" fill="white"/>
<g clip-path="url(#clip0_10475_59674)">
<path d="M316.016 459.458C296.243 447.633 277.975 441.186 218.006 441.186H125.15V814.756H196.296V677.191H235.2C274.321 677.191 289.579 672.891 305.703 664.723C344.177 645.376 366.53 605.616 366.53 556.182C366.745 513.191 348.904 478.802 316.016 459.458ZM280.553 596.586C270.879 612.283 262.28 615.933 233.265 615.933H196.295V502.017H241.432C271.311 502.017 289.15 523.081 289.15 557.9C289.149 575.524 286.571 586.485 280.553 596.586ZM125.149 850.006H141.486V1001.54H125.149V850.006ZM310.855 888.694C298.606 888.694 288.503 893.638 280.336 903.955C271.739 914.916 268.087 926.959 268.087 945.442C268.087 981.98 285.065 1003.9 313.224 1003.9C326.333 1003.9 338.582 998.958 347.614 990.147L341.382 979.186C334.288 986.277 326.334 989.504 316.447 989.504C306.129 989.504 296.884 985.632 291.082 975.958C287.645 970.157 286.355 962.206 286.355 951.888V949.31H349.762V946.943C349.335 920.724 346.971 910.192 338.158 900.518C331.492 892.994 322.037 888.694 310.855 888.694ZM286.571 936.414C287.429 913.629 295.599 902.233 309.997 902.233C317.737 902.233 324.828 905.89 328.272 911.914C331.276 917.28 332.782 924.59 332.998 936.414H286.571ZM444.339 905.248C446.061 909.113 446.7 913.629 446.7 918.144V1001.54H430.581V927.17C430.581 915.564 429.718 912.552 426.927 908.899C424.774 906.106 420.479 904.17 415.752 904.17C407.58 904.17 394.899 911.263 387.593 919.644V1001.54H372.114V916.638C372.114 900.949 368.251 893.423 368.251 893.423L383.723 888.694C383.723 888.694 387.375 896.867 387.375 905.89C397.909 894.497 408.654 888.91 419.404 888.91C430.368 889.129 440.252 895.574 444.339 905.248ZM387.593 463.755C387.593 439.039 406.94 419.266 430.15 419.266C452.936 419.266 471.204 439.252 471.204 463.755C471.204 488.476 452.289 508.465 429.079 508.465C406.508 508.465 387.593 488.476 387.593 463.755ZM395.331 544.36L463.254 532.964V814.54H395.331V544.36ZM490.766 891.709H516.988L512.046 904.813H490.119V975.75C490.119 987.999 493.131 992.078 503.233 992.078C507.744 992.078 506.456 992.078 509.465 990.577L511.613 1001.54C506.455 1004.34 504.52 1005.19 497.425 1005.19C492.054 1005.19 487.972 1004.12 484.102 1002.18C477.011 998.528 474.215 991.435 474.215 980.26V904.813H460.89V891.709H474.215V850.006H490.55V891.709H490.766ZM247.667 850.006H231.761V886.543C231.761 894.498 231.972 903.526 231.972 903.526C225.955 894.711 215.853 889.557 204.46 889.557C197.153 889.557 191.353 891.488 184.902 896.432C170.932 906.748 163.841 923.947 163.841 947.372C163.841 982.408 178.886 1003.04 205.323 1003.04C217.142 1003.04 224.881 999.392 232.187 990.147C232.403 995.956 234.34 1001.32 234.34 1001.32H250.673C248.309 994.877 247.666 984.776 247.666 965.863V850.006H247.667ZM231.545 973.595C231.545 973.595 229.609 978.331 225.313 981.554C218.865 986.712 214.136 988.642 205.75 988.642C196.295 988.642 190.062 984.991 185.333 975.75C182.108 969.3 181.25 959.84 181.25 946.943C181.25 931.469 182.972 923.517 187.698 915.136C191.995 907.612 198.659 903.741 206.613 903.741C218.649 903.741 226.171 907.392 231.329 915.136V973.594L231.545 973.595ZM723.117 891.488L688.294 1005.41C681.414 1027.54 673.249 1042.17 655.408 1046.68L650.679 1035.07C660.567 1031.63 665.724 1026.91 670.244 1014.86C668.522 1006.27 667.666 1002.4 667.666 1002.4C666.369 995.306 661 973.811 657.563 962.85L635.417 894.069L651.112 888.266L671.96 959.627C674.967 969.942 677.977 986.925 677.977 986.925H678.407C678.407 986.925 682.277 972.737 684.641 963.708L704.633 891.488H723.117ZM736.872 981.554C736.872 977.681 734.721 976.175 730.421 976.175H723.976V994.45H727.204V986.496H729.135L733.65 994.234H736.874L732.363 986.277C735.155 986.062 736.872 984.561 736.872 981.554ZM727.417 983.913V978.753H730.21C731.927 978.753 733.648 979.187 733.648 981.333C733.648 983.697 731.926 984.131 730.21 984.131H727.417V983.913ZM729.997 969.3C721.616 969.3 714.736 976.61 714.736 985.419C714.736 994.234 721.616 1001.54 729.997 1001.54C738.378 1001.54 745.258 994.234 745.258 985.419C745.042 976.389 738.378 969.3 729.997 969.3ZM729.997 998.32C723.546 998.32 718.601 992.941 718.601 985.419C718.601 977.897 723.759 972.523 729.997 972.523C736.442 972.523 741.385 977.897 741.385 985.419C741.385 992.941 736.227 998.32 729.997 998.32ZM894.428 744.466L857.886 744.037C850.792 744.037 846.711 741.243 846.711 737.591C846.711 730.069 856.38 723.618 873.575 715.022C878.733 715.667 880.664 715.667 883.678 715.667C938.92 715.667 979.753 681.278 979.753 633.99C979.753 615.719 974.595 601.747 964.497 588.85C968.578 589.285 975.674 590.356 982.333 590.356C1001.04 590.356 1015.22 584.339 1030.05 569.938L1001.68 524.153C985.991 539.201 966.648 547.798 947.944 547.798C939.35 547.798 930.106 545.652 915.917 541.778C897.218 537.051 883.895 534.898 869.276 534.898C802.865 534.898 759.656 571.439 759.656 627.973C759.656 668.811 777.926 693.96 815.546 704.272C772.773 716.101 767.828 732.863 767.828 750.488C767.828 769.401 775.35 781.66 787.599 786.384C799.85 791.758 819.626 794.335 850.148 794.981L879.163 795.624C906.035 796.058 926.883 803.796 926.883 828.512C926.883 839.906 920.217 850.008 910.114 856.458C899.369 863.549 884.751 865.484 867.559 865.484C836.174 865.484 818.768 853.659 818.768 831.524C818.768 824.002 819.197 820.349 821.777 813.898H758.798C756.22 819.265 752.781 826.794 752.781 841.842C752.781 860.538 759.869 876.662 774.057 890.631C797.486 913.846 835.532 920.296 872.504 920.296C913.128 920.296 952.246 910.622 975.028 884.825C989.213 868.706 995.877 851.078 995.877 827.871C995.877 803.145 988.783 784.24 973.523 769.192C954.823 751.346 933.976 744.9 894.428 744.466ZM828.007 628.187C828.007 602.394 842.841 587.347 868.631 587.347C894.639 587.347 909.684 602.394 909.684 628.187C909.684 653.55 895.069 667.305 867.989 667.305C844.131 667.522 828.007 656.343 828.007 628.187ZM633.915 595.514C620.155 595.514 602.53 605.188 586.627 620.235V814.756H518.493V615.29C518.493 591.644 515.481 569.073 509.465 550.809L569.862 532.538C575.879 543.929 579.536 555.535 579.536 566.928C589.639 559.403 598.235 552.954 609.41 546.507C623.17 538.985 640.795 534.687 656.056 534.687C685.071 534.687 710.435 550.809 718.602 574.453C722.259 584.554 723.76 596.378 723.76 613.569V814.54H656.7V635.495C656.7 604.758 651.756 595.514 633.915 595.514ZM599.094 904.605V975.529C599.094 987.783 602.106 991.869 612.209 991.869C616.719 991.869 615.427 991.869 618.44 990.363L620.589 1001.32C615.426 1004.12 613.495 1004.98 606.407 1004.98C601.028 1004.98 596.942 1003.9 593.076 1001.97C585.98 998.32 583.187 991.219 583.187 980.044V904.605H569.861V891.488H583.187V849.792H599.522V891.488H625.103L620.154 904.605H599.094ZM534.184 891.917L550.732 889.129V1001.54H534.184V891.917Z" fill="white"/>
</g>
<defs>
<clipPath id="clip0_10475_59674">
<rect width="114" height="131" fill="white" transform="translate(377 388)"/>
</clipPath>
</defs>
</svg>
