<svg width="1125" height="1125" viewBox="0 0 1125 1125" fill="none" xmlns="http://www.w3.org/2000/svg">
<path d="M1122.91 2.06201H3.0625V1121.91H1122.91V2.06201Z" fill="white"/>
<path d="M316.017 459.458C296.244 447.633 277.976 441.186 218.007 441.186H125.151V814.756H196.297V677.191H235.201C274.322 677.191 289.58 672.891 305.704 664.723C344.178 645.376 366.531 605.616 366.531 556.182C366.746 513.191 348.905 478.802 316.017 459.458ZM280.554 596.586C270.88 612.283 262.281 615.933 233.266 615.933H196.296V502.017H241.433C271.312 502.017 289.151 523.081 289.151 557.9C289.15 575.524 286.572 586.485 280.554 596.586ZM125.15 850.006H141.487V1001.54H125.15V850.006ZM310.856 888.694C298.607 888.694 288.504 893.638 280.337 903.955C271.74 914.916 268.088 926.959 268.088 945.442C268.088 981.98 285.066 1003.9 313.225 1003.9C326.334 1003.9 338.583 998.958 347.615 990.147L341.383 979.186C334.289 986.277 326.335 989.504 316.448 989.504C306.13 989.504 296.885 985.632 291.083 975.958C287.646 970.157 286.356 962.206 286.356 951.888V949.31H349.763V946.943C349.336 920.724 346.972 910.192 338.159 900.518C331.493 892.994 322.038 888.694 310.856 888.694ZM286.572 936.414C287.43 913.629 295.6 902.233 309.998 902.233C317.738 902.233 324.829 905.89 328.273 911.914C331.277 917.28 332.783 924.59 332.999 936.414H286.572ZM444.34 905.248C446.062 909.113 446.701 913.629 446.701 918.144V1001.54H430.582V927.17C430.582 915.564 429.719 912.552 426.928 908.899C424.775 906.106 420.48 904.17 415.753 904.17C407.581 904.17 394.9 911.263 387.594 919.644V1001.54H372.115V916.638C372.115 900.949 368.252 893.423 368.252 893.423L383.724 888.694C383.724 888.694 387.376 896.867 387.376 905.89C397.91 894.497 408.655 888.91 419.405 888.91C430.369 889.129 440.253 895.574 444.34 905.248ZM387.594 463.755C387.594 439.039 406.941 419.266 430.151 419.266C452.937 419.266 471.205 439.252 471.205 463.755C471.205 488.476 452.29 508.465 429.08 508.465C406.509 508.465 387.594 488.476 387.594 463.755ZM395.332 544.36L463.255 532.964V814.54H395.332V544.36ZM490.767 891.709H516.989L512.047 904.813H490.12V975.75C490.12 987.999 493.132 992.078 503.234 992.078C507.745 992.078 506.457 992.078 509.466 990.577L511.614 1001.54C506.456 1004.34 504.521 1005.2 497.426 1005.2C492.055 1005.2 487.973 1004.12 484.103 1002.19C477.012 998.528 474.216 991.435 474.216 980.26V904.813H460.891V891.709H474.216V850.006H490.551V891.709H490.767ZM247.668 850.006H231.762V886.543C231.762 894.498 231.973 903.526 231.973 903.526C225.956 894.711 215.854 889.557 204.461 889.557C197.154 889.557 191.354 891.488 184.903 896.432C170.933 906.748 163.842 923.947 163.842 947.372C163.842 982.408 178.887 1003.04 205.324 1003.04C217.143 1003.04 224.882 999.392 232.188 990.147C232.404 995.956 234.341 1001.32 234.341 1001.32H250.674C248.31 994.877 247.667 984.776 247.667 965.863V850.006H247.668ZM231.546 973.595C231.546 973.595 229.61 978.331 225.314 981.554C218.866 986.712 214.137 988.642 205.751 988.642C196.296 988.642 190.063 984.991 185.334 975.75C182.109 969.3 181.251 959.84 181.251 946.943C181.251 931.469 182.973 923.517 187.699 915.136C191.996 907.612 198.66 903.741 206.614 903.741C218.65 903.741 226.172 907.392 231.33 915.136V973.594L231.546 973.595ZM723.118 891.488L688.295 1005.41C681.415 1027.54 673.25 1042.17 655.409 1046.68L650.68 1035.07C660.568 1031.63 665.725 1026.91 670.245 1014.86C668.523 1006.27 667.667 1002.4 667.667 1002.4C666.37 995.306 661.001 973.811 657.564 962.85L635.418 894.069L651.113 888.266L671.961 959.627C674.968 969.942 677.978 986.925 677.978 986.925H678.408C678.408 986.925 682.278 972.737 684.642 963.708L704.634 891.488H723.118ZM736.873 981.554C736.873 977.681 734.722 976.175 730.422 976.175H723.977V994.45H727.205V986.496H729.136L733.651 994.234H736.875L732.364 986.277C735.156 986.062 736.873 984.561 736.873 981.554ZM727.418 983.913V978.753H730.211C731.928 978.753 733.649 979.187 733.649 981.333C733.649 983.697 731.927 984.131 730.211 984.131H727.418V983.913ZM729.998 969.3C721.617 969.3 714.737 976.61 714.737 985.419C714.737 994.234 721.617 1001.54 729.998 1001.54C738.379 1001.54 745.259 994.234 745.259 985.419C745.043 976.389 738.379 969.3 729.998 969.3ZM729.998 998.32C723.547 998.32 718.602 992.941 718.602 985.419C718.602 977.897 723.76 972.523 729.998 972.523C736.443 972.523 741.386 977.897 741.386 985.419C741.386 992.941 736.228 998.32 729.998 998.32ZM894.429 744.466L857.887 744.037C850.793 744.037 846.712 741.243 846.712 737.591C846.712 730.069 856.381 723.618 873.576 715.022C878.734 715.667 880.665 715.667 883.679 715.667C938.921 715.667 979.754 681.278 979.754 633.99C979.754 615.719 974.596 601.747 964.498 588.85C968.579 589.285 975.675 590.356 982.334 590.356C1001.04 590.356 1015.23 584.339 1030.05 569.938L1001.68 524.153C985.992 539.201 966.649 547.798 947.945 547.798C939.351 547.798 930.107 545.652 915.918 541.778C897.219 537.051 883.896 534.898 869.277 534.898C802.866 534.898 759.657 571.439 759.657 627.973C759.657 668.811 777.927 693.96 815.547 704.272C772.774 716.101 767.829 732.863 767.829 750.488C767.829 769.401 775.351 781.66 787.6 786.384C799.851 791.758 819.627 794.335 850.149 794.981L879.164 795.624C906.036 796.058 926.884 803.796 926.884 828.512C926.884 839.906 920.218 850.008 910.115 856.458C899.37 863.549 884.752 865.484 867.56 865.484C836.175 865.484 818.769 853.659 818.769 831.524C818.769 824.002 819.198 820.349 821.778 813.898H758.799C756.221 819.265 752.782 826.794 752.782 841.842C752.782 860.538 759.87 876.662 774.058 890.631C797.487 913.846 835.533 920.296 872.505 920.296C913.129 920.296 952.247 910.622 975.029 884.825C989.214 868.706 995.878 851.078 995.878 827.871C995.878 803.145 988.784 784.24 973.524 769.192C954.824 751.346 933.977 744.9 894.429 744.466ZM828.008 628.187C828.008 602.394 842.842 587.347 868.632 587.347C894.64 587.347 909.685 602.394 909.685 628.187C909.685 653.55 895.07 667.305 867.99 667.305C844.132 667.522 828.008 656.343 828.008 628.187ZM633.916 595.514C620.156 595.514 602.531 605.188 586.628 620.235V814.756H518.494V615.29C518.494 591.644 515.482 569.073 509.466 550.809L569.863 532.538C575.88 543.929 579.537 555.535 579.537 566.928C589.64 559.403 598.236 552.954 609.411 546.507C623.171 538.985 640.796 534.687 656.057 534.687C685.072 534.687 710.436 550.809 718.603 574.453C722.26 584.554 723.761 596.378 723.761 613.569V814.54H656.701V635.495C656.701 604.758 651.757 595.514 633.916 595.514ZM599.095 904.605V975.529C599.095 987.783 602.107 991.869 612.21 991.869C616.72 991.869 615.428 991.869 618.441 990.363L620.59 1001.32C615.427 1004.12 613.496 1004.98 606.408 1004.98C601.029 1004.98 596.943 1003.9 593.077 1001.97C585.981 998.32 583.188 991.219 583.188 980.044V904.605H569.862V891.488H583.188V849.792H599.523V891.488H625.104L620.155 904.605H599.095ZM534.185 891.917L550.733 889.129V1001.54H534.185V891.917Z" fill="#324054"/>
<g clip-path="url(#clip0_10545_71962)">
<path d="M316.015 459.458C296.242 447.633 277.974 441.186 218.005 441.186H125.149V814.756H196.295V677.191H235.199C274.32 677.191 289.578 672.891 305.702 664.723C344.176 645.376 366.529 605.616 366.529 556.182C366.744 513.191 348.903 478.802 316.015 459.458ZM280.552 596.586C270.878 612.283 262.279 615.933 233.264 615.933H196.294V502.017H241.431C271.31 502.017 289.149 523.081 289.149 557.9C289.148 575.524 286.57 586.485 280.552 596.586ZM125.148 850.006H141.485V1001.54H125.148V850.006ZM310.854 888.694C298.605 888.694 288.502 893.638 280.335 903.955C271.738 914.916 268.086 926.959 268.086 945.442C268.086 981.98 285.064 1003.9 313.223 1003.9C326.332 1003.9 338.581 998.958 347.613 990.147L341.381 979.186C334.287 986.277 326.333 989.504 316.446 989.504C306.128 989.504 296.883 985.632 291.081 975.958C287.644 970.157 286.354 962.206 286.354 951.888V949.31H349.761V946.943C349.334 920.724 346.97 910.192 338.157 900.518C331.491 892.994 322.036 888.694 310.854 888.694ZM286.57 936.414C287.428 913.629 295.598 902.233 309.996 902.233C317.736 902.233 324.827 905.89 328.271 911.914C331.275 917.28 332.781 924.59 332.997 936.414H286.57ZM444.338 905.248C446.06 909.113 446.699 913.629 446.699 918.144V1001.54H430.58V927.17C430.58 915.564 429.717 912.552 426.926 908.899C424.773 906.106 420.478 904.17 415.751 904.17C407.579 904.17 394.898 911.263 387.592 919.644V1001.54H372.113V916.638C372.113 900.949 368.25 893.423 368.25 893.423L383.722 888.694C383.722 888.694 387.374 896.867 387.374 905.89C397.908 894.497 408.653 888.91 419.403 888.91C430.367 889.129 440.251 895.574 444.338 905.248ZM387.592 463.755C387.592 439.039 406.939 419.266 430.149 419.266C452.935 419.266 471.203 439.252 471.203 463.755C471.203 488.476 452.288 508.465 429.078 508.465C406.507 508.465 387.592 488.476 387.592 463.755ZM395.33 544.36L463.253 532.964V814.54H395.33V544.36ZM490.765 891.709H516.987L512.045 904.813H490.118V975.75C490.118 987.999 493.13 992.078 503.232 992.078C507.743 992.078 506.455 992.078 509.464 990.577L511.612 1001.54C506.454 1004.34 504.519 1005.2 497.424 1005.2C492.053 1005.2 487.971 1004.12 484.101 1002.19C477.01 998.528 474.214 991.435 474.214 980.26V904.813H460.889V891.709H474.214V850.006H490.549V891.709H490.765ZM247.666 850.006H231.76V886.543C231.76 894.498 231.971 903.526 231.971 903.526C225.954 894.711 215.852 889.557 204.459 889.557C197.152 889.557 191.352 891.488 184.901 896.432C170.931 906.748 163.84 923.947 163.84 947.372C163.84 982.408 178.885 1003.04 205.322 1003.04C217.141 1003.04 224.88 999.392 232.186 990.147C232.402 995.956 234.339 1001.32 234.339 1001.32H250.672C248.308 994.877 247.665 984.776 247.665 965.863V850.006H247.666ZM231.544 973.595C231.544 973.595 229.608 978.331 225.312 981.554C218.864 986.712 214.135 988.642 205.749 988.642C196.294 988.642 190.061 984.991 185.332 975.75C182.107 969.3 181.249 959.84 181.249 946.943C181.249 931.469 182.971 923.517 187.697 915.136C191.994 907.612 198.658 903.741 206.612 903.741C218.648 903.741 226.17 907.392 231.328 915.136V973.594L231.544 973.595ZM723.116 891.488L688.293 1005.41C681.413 1027.54 673.248 1042.17 655.407 1046.68L650.678 1035.07C660.566 1031.63 665.723 1026.91 670.243 1014.86C668.521 1006.27 667.665 1002.4 667.665 1002.4C666.368 995.306 660.999 973.811 657.562 962.85L635.416 894.069L651.111 888.266L671.959 959.627C674.966 969.942 677.976 986.925 677.976 986.925H678.406C678.406 986.925 682.276 972.737 684.64 963.708L704.632 891.488H723.116ZM736.871 981.554C736.871 977.681 734.72 976.175 730.42 976.175H723.975V994.45H727.203V986.496H729.134L733.649 994.234H736.873L732.362 986.277C735.154 986.062 736.871 984.561 736.871 981.554ZM727.416 983.913V978.753H730.209C731.926 978.753 733.647 979.187 733.647 981.333C733.647 983.697 731.925 984.131 730.209 984.131H727.416V983.913ZM729.996 969.3C721.615 969.3 714.735 976.61 714.735 985.419C714.735 994.234 721.615 1001.54 729.996 1001.54C738.377 1001.54 745.257 994.234 745.257 985.419C745.041 976.389 738.377 969.3 729.996 969.3ZM729.996 998.32C723.545 998.32 718.6 992.941 718.6 985.419C718.6 977.897 723.758 972.523 729.996 972.523C736.441 972.523 741.384 977.897 741.384 985.419C741.384 992.941 736.226 998.32 729.996 998.32ZM894.427 744.466L857.885 744.037C850.791 744.037 846.71 741.243 846.71 737.591C846.71 730.069 856.379 723.618 873.574 715.022C878.732 715.667 880.663 715.667 883.677 715.667C938.919 715.667 979.752 681.278 979.752 633.99C979.752 615.719 974.594 601.747 964.496 588.85C968.577 589.285 975.673 590.356 982.332 590.356C1001.04 590.356 1015.22 584.339 1030.05 569.938L1001.68 524.153C985.99 539.201 966.647 547.798 947.943 547.798C939.349 547.798 930.105 545.652 915.916 541.778C897.217 537.051 883.894 534.898 869.275 534.898C802.864 534.898 759.655 571.439 759.655 627.973C759.655 668.811 777.925 693.96 815.545 704.272C772.772 716.101 767.827 732.863 767.827 750.488C767.827 769.401 775.349 781.66 787.598 786.384C799.849 791.758 819.625 794.335 850.147 794.981L879.162 795.624C906.034 796.058 926.882 803.796 926.882 828.512C926.882 839.906 920.216 850.008 910.113 856.458C899.368 863.549 884.75 865.484 867.558 865.484C836.173 865.484 818.767 853.659 818.767 831.524C818.767 824.002 819.196 820.349 821.776 813.898H758.797C756.219 819.265 752.78 826.794 752.78 841.842C752.78 860.538 759.868 876.662 774.056 890.631C797.485 913.846 835.531 920.296 872.503 920.296C913.127 920.296 952.245 910.622 975.027 884.825C989.212 868.706 995.876 851.078 995.876 827.871C995.876 803.145 988.782 784.24 973.522 769.192C954.822 751.346 933.975 744.9 894.427 744.466ZM828.006 628.187C828.006 602.394 842.84 587.347 868.63 587.347C894.638 587.347 909.683 602.394 909.683 628.187C909.683 653.55 895.068 667.305 867.988 667.305C844.13 667.522 828.006 656.343 828.006 628.187ZM633.914 595.514C620.154 595.514 602.529 605.188 586.626 620.235V814.756H518.492V615.29C518.492 591.644 515.48 569.073 509.464 550.809L569.861 532.538C575.878 543.929 579.535 555.535 579.535 566.928C589.638 559.403 598.234 552.954 609.409 546.507C623.169 538.985 640.794 534.687 656.055 534.687C685.07 534.687 710.434 550.809 718.601 574.453C722.258 584.554 723.759 596.378 723.759 613.569V814.54H656.699V635.495C656.699 604.758 651.755 595.514 633.914 595.514ZM599.093 904.605V975.529C599.093 987.783 602.105 991.869 612.208 991.869C616.718 991.869 615.426 991.869 618.439 990.363L620.588 1001.32C615.425 1004.12 613.494 1004.98 606.406 1004.98C601.027 1004.98 596.941 1003.9 593.075 1001.97C585.979 998.32 583.186 991.219 583.186 980.044V904.605H569.86V891.488H583.186V849.792H599.521V891.488H625.102L620.153 904.605H599.093ZM534.183 891.917L550.731 889.129V1001.54H534.183V891.917Z" fill="#324054"/>
</g>
<defs>
<clipPath id="clip0_10545_71962">
<rect width="114" height="131" fill="white" transform="translate(377 388)"/>
</clipPath>
</defs>
</svg>
