<svg width="121" height="125" viewBox="0 0 121 125" fill="none" xmlns="http://www.w3.org/2000/svg">
<path fill-rule="evenodd" clip-rule="evenodd" d="M74.7951 54.8503H51.0066V63.8544C51.0066 69.1202 46.7399 73.4046 41.4965 73.4046C36.2537 73.4046 31.9875 69.1202 31.9875 63.8544V53.7993C31.9875 53.2191 32.4567 52.7484 33.0345 52.7484H74.7951C75.3724 52.7484 75.8416 53.2191 75.8416 53.7993C75.8416 54.3796 75.3724 54.8503 74.7951 54.8503ZM105.943 57.6527L96.4151 47.9121C96.2234 47.7153 96.1148 47.4511 96.1148 47.1756V42.4013C96.1148 19.0213 77.175 2.85623e-08 53.8946 2.85623e-08C30.613 2.85623e-08 11.6727 19.0213 11.6727 42.4013V47.1756C11.6727 47.4511 11.5641 47.7153 11.3724 47.9121L1.85004 57.6463C-0.615615 60.1235 -0.615614 64.1427 1.84365 66.613C4.30345 69.0833 8.30601 69.0828 10.7653 66.613L21.2084 56.1654C21.6168 55.7562 22.2788 55.7568 22.6878 56.1686C23.0957 56.5798 23.0946 57.2452 22.6851 57.6543L12.9008 67.4436V105.767C12.9008 109.843 16.2025 113.16 20.2621 113.16C24.3216 113.16 27.6233 109.843 27.6233 105.767C27.6233 105.186 28.0925 104.716 28.6698 104.716C29.2476 104.716 29.7168 105.186 29.7168 105.767C29.7168 109.843 33.0185 113.16 37.078 113.16C41.1376 113.16 44.4393 109.843 44.4393 105.767C44.4393 105.186 44.9085 104.716 45.4863 104.716C46.0636 104.716 46.5327 105.186 46.5327 105.767C46.5327 109.843 49.835 113.16 53.8946 113.16C57.9541 113.16 61.2553 109.843 61.2553 105.767C61.2553 105.186 61.725 104.716 62.3023 104.716C62.8801 104.716 63.3493 105.186 63.3493 105.767C63.3493 109.843 66.651 113.16 70.7105 113.16C74.7701 113.16 78.0718 109.843 78.0718 105.767C78.0718 105.186 78.541 104.716 79.1183 104.716C79.6961 104.716 80.1652 105.186 80.1652 105.767C80.1652 109.843 83.467 113.16 87.5265 113.16C91.5861 113.16 94.8878 109.843 94.8878 105.767V67.4436L85.1024 57.6543C84.6929 57.2452 84.6924 56.5798 85.0998 56.1686C85.5077 55.7568 86.1696 55.7562 86.5792 56.1654L97.0212 66.6114C98.2135 67.8099 99.7978 68.4688 101.483 68.4688C103.169 68.4688 104.753 67.8099 105.943 66.613C107.136 65.4161 107.792 63.825 107.792 62.1328C107.792 60.4407 107.136 58.8496 105.943 57.6527Z" transform="translate(11.1142 2.10127)" fill="#2D9EE0" fill-opacity="0.1"/>
<path fill-rule="evenodd" clip-rule="evenodd" d="M8.57441 8.42978C4.51966 8.42978 1.22058 5.12087 1.21312 1.05091L0.268931 0.0122988C0.388752 0.0176469 0.525615 0.0556208 0.668335 0.112846C0.993184 0.29094 1.21419 0.6375 1.21419 1.03594C1.21419 5.11231 4.51593 8.42871 8.57548 8.42871C9.22517 8.42871 9.85517 8.34367 10.4553 8.18483C9.85464 8.34474 9.22464 8.42978 8.57441 8.42978ZM0.268931 0.0122988C0.266801 0.0122988 0.264138 0.0117683 0.261475 0.0117683C0.266268 0.0123031 0.268931 0.0122988 0.268931 0.0122988ZM0.261475 0.0117683C0.261475 0.0117683 0.261476 0.0117683 0.260943 0.0117683C0.261476 0.0117683 0.261475 0.0117683 0.261475 0.0117683ZM0.260943 0.0117683C0.260943 0.0117683 0.260943 0.0117683 0.260411 0.0117683C0.260943 0.0117683 0.260943 0.0117683 0.260943 0.0117683ZM0.260411 0.0117683H0.259879H0.260411ZM0.259879 0.0117683C0.259346 0.0117683 0.259347 0.0117683 0.258814 0.0117683C0.259347 0.0117683 0.259346 0.0117683 0.259879 0.0117683ZM0.258814 0.0117683C0.258814 0.0117683 0.258282 0.0117683 0.25775 0.0117683C0.258282 0.0117683 0.258814 0.0117683 0.258814 0.0117683ZM0.25775 0.0117683C0.25775 0.0117683 0.257218 0.0117683 0.256685 0.0117683C0.257218 0.0117683 0.25775 0.0117683 0.25775 0.0117683ZM0.256685 0.0117683C0.252957 0.0117683 0.248695 0.0112297 0.244968 0.0112297C0.24976 0.0112297 0.25349 0.0117683 0.256685 0.0117683ZM0.244968 0.0112297C0.244435 0.0112297 0.243903 0.0112297 0.243903 0.0112297C0.243903 0.0112297 0.244435 0.0112297 0.244968 0.0112297ZM0.243903 0.0112297C0.23911 0.0106949 0.234317 0.0106993 0.229524 0.0106993C0.23485 0.0106993 0.239643 0.0106949 0.243903 0.0112297ZM0.229524 0.0106993C0.226862 0.0101645 0.224199 0.0101607 0.221004 0.0101607C0.224199 0.0101607 0.226862 0.0101645 0.229524 0.0106993ZM0.221004 0.0101607C0.219939 0.0101607 0.218872 0.0101607 0.217274 0.0101607C0.218872 0.0101607 0.219939 0.0101607 0.221004 0.0101607ZM0.217274 0.0101607C0.217274 0.0101607 0.217275 0.00963022 0.216742 0.00963022C0.217275 0.00963022 0.217274 0.0101607 0.217274 0.0101607ZM0.216742 0.00963022C0.215677 0.00963022 0.214614 0.00963022 0.213016 0.00963022C0.214614 0.00963022 0.215677 0.00963022 0.216742 0.00963022ZM0.213016 0.00963022C0.212484 0.00963022 0.211953 0.00963022 0.210887 0.00963022C0.211953 0.00963022 0.212484 0.00963022 0.213016 0.00963022ZM0.210887 0.00963022H0.210351H0.210887ZM0.210351 0.00963022C0.208221 0.00963022 0.206094 0.00962644 0.203964 0.00909162C0.206094 0.00962644 0.208221 0.00963022 0.210351 0.00963022ZM0.203964 0.00909162C0.201302 0.00909162 0.198635 0.00909162 0.195972 0.00909162C0.198635 0.00909162 0.201302 0.00909162 0.203964 0.00909162ZM0.195972 0.00909162C0.19544 0.00909162 0.19544 0.00909162 0.19544 0.00909162C0.19544 0.00909162 0.19544 0.00909162 0.195972 0.00909162ZM0.19544 0.00909162C0.191712 0.0085568 0.188519 0.00855302 0.185323 0.00855302C0.188519 0.00855302 0.192245 0.0085568 0.19544 0.00909162ZM0.185323 0.00855302C0.184258 0.00855302 0.183727 0.00855302 0.182662 0.00855302C0.183727 0.00855302 0.184258 0.00855302 0.185323 0.00855302ZM0.182662 0.00855302C0.18213 0.00855302 0.181598 0.00855739 0.181598 0.00802257C0.181598 0.00855739 0.18213 0.00855302 0.182662 0.00855302ZM0.181598 0.00802257C0.181065 0.00802257 0.181062 0.00802257 0.180529 0.00802257C0.181062 0.00802257 0.181065 0.00802257 0.181598 0.00802257ZM0.180529 0.00802257C0.179997 0.00802257 0.179465 0.00802257 0.178932 0.00802257C0.179465 0.00802257 0.179997 0.00802257 0.180529 0.00802257ZM0.178932 0.00802257C0.177335 0.00802257 0.17574 0.00802257 0.174142 0.00802257C0.17574 0.00802257 0.177335 0.00802257 0.178932 0.00802257ZM0.174142 0.00802257C0.17361 0.00802257 0.173606 0.00802257 0.173074 0.00802257C0.173606 0.00802257 0.17361 0.00802257 0.174142 0.00802257ZM0.173074 0.00802257C0.172541 0.00802257 0.171477 0.00802257 0.170945 0.00802257C0.171477 0.00802257 0.172541 0.00802257 0.173074 0.00802257ZM0.170945 0.00802257C0.169347 0.00748776 0.168284 0.00748397 0.166687 0.00748397C0.168284 0.00748397 0.169347 0.00748776 0.170945 0.00802257ZM0.166687 0.00748397C0.163491 0.00748397 0.160294 0.00748835 0.156566 0.00695353C0.160294 0.00748835 0.163491 0.00748397 0.166687 0.00748397ZM0.156566 0.00695353C0.156033 0.00695353 0.154969 0.00695353 0.154437 0.00695353C0.155502 0.00695353 0.156033 0.00695353 0.156566 0.00695353ZM0.154437 0.00695353C0.151774 0.00695353 0.14858 0.00695353 0.145917 0.00695353C0.14858 0.00695353 0.151774 0.00695353 0.154437 0.00695353ZM0.145917 0.00695353C0.145384 0.00641871 0.144853 0.00641493 0.14432 0.00641493C0.144853 0.00641493 0.145384 0.00641871 0.145917 0.00695353ZM0.14432 0.00641493C0.114498 0.00534529 0.0846735 0.00374698 0.0596441 0.00267735C0.0809457 0.00374698 0.10864 0.00481048 0.14432 0.00641493ZM0.0596441 0.00267735C0.0591116 0.00267735 0.0585799 0.00267735 0.0580474 0.00267735C0.0585799 0.00267735 0.0591116 0.00267735 0.0596441 0.00267735ZM0.0580474 0.00267735C0.0484617 0.00214253 0.0399391 0.00214312 0.031951 0.0016083C0.0394066 0.00214312 0.0479291 0.00214253 0.0580474 0.00267735ZM0.031951 0.0016083C0.031951 0.0016083 0.0319513 0.0016083 0.0314188 0.0016083C0.0319513 0.0016083 0.031951 0.0016083 0.031951 0.0016083ZM0.0314188 0.0016083C0.0282236 0.0016083 0.0250295 0.0010697 0.0218343 0.0010697C0.0250295 0.0010697 0.0282236 0.0016083 0.0314188 0.0016083ZM0.0218343 0.0010697C0.0218343 0.0010697 0.0218346 0.0010697 0.0213021 0.0010697C0.0218346 0.0010697 0.0218343 0.0010697 0.0218343 0.0010697ZM0.0213021 0.0010697H0.0207698H0.0213021ZM0.0207698 0.0010697C0.0202373 0.0010697 0.0197053 0.0010697 0.0197053 0.0010697C0.0197053 0.0010697 0.0202373 0.0010697 0.0207698 0.0010697ZM0.0197053 0.0010697C0.0186402 0.0010697 0.0181048 0.0010697 0.0175723 0.0010697C0.0181048 0.0010697 0.0186402 0.0010697 0.0197053 0.0010697ZM0.0175723 0.0010697C0.0165072 0.0010697 0.0154436 0.0010697 0.014911 0.0010697C0.0159761 0.0010697 0.0165072 0.0010697 0.0175723 0.0010697ZM0.014911 0.0010697L0.0143788 0.000531095L0.014911 0.0010697ZM0.0143788 0.000531095C0.0138462 0.000531095 0.0133143 0.000531095 0.0133143 0.000531095C0.0133143 0.000531095 0.0138462 0.000531095 0.0143788 0.000531095ZM0.0133143 0.000531095C0.00905398 0.000531095 0.00585995 0.000531095 0.00372979 0.000531095C0.00585995 0.000531095 0.00905398 0.000531095 0.0133143 0.000531095ZM0.00372979 0.000531095C0.00319725 0.000531095 0.00319348 0.000531095 0.00319348 0.000531095C0.00319348 0.000531095 0.00319725 0.000531095 0.00372979 0.000531095ZM0.00319348 0.000531095C0.00106332 -3.72127e-06 0 6.52852e-07 0 6.52852e-07C0 6.52852e-07 0.00106332 -3.72127e-06 0.00319348 0.000531095Z" transform="translate(39.6169 106.832)" fill="#DDF2F9"/>
<path fill-rule="evenodd" clip-rule="evenodd" d="M7.90714 8.31586C3.84759 8.31586 0.545852 4.99946 0.545852 0.923092C0.545852 0.524654 0.324847 0.178094 -1.46266e-06 -1.3057e-07C0.00159615 0.000534686 0.00372745 0.00160314 0.00532507 0.00213796C0.740229 0.300566 1.20673 1.01562 1.33614 1.80073C1.90383 5.2412 5.3616 7.14622 9.07181 7.14622C10.8047 7.14622 12.397 6.53813 13.6559 5.52786C12.6835 6.75045 11.3346 7.65964 9.78701 8.07199C9.18683 8.23083 8.55684 8.31586 7.90714 8.31586Z" transform="translate(40.2852 106.945)" fill="#C0E6F3"/>
<path fill-rule="evenodd" clip-rule="evenodd" d="M8.57441 8.42978C7.14827 8.42978 5.81586 8.02064 4.68688 7.31308C5.81533 8.02011 7.14721 8.42871 8.57281 8.42871C9.58198 8.42871 10.5448 8.22387 11.4214 7.85271C10.5453 8.22441 9.58357 8.42978 8.57441 8.42978ZM1.211 1.04878L0.268931 0.0122988C0.385557 0.0171121 0.518162 0.0534801 0.65609 0.108031C0.986264 0.285056 1.211 0.633756 1.211 1.03594C1.211 1.04022 1.211 1.0445 1.211 1.04878ZM0.268931 0.0122988C0.266801 0.0122988 0.264138 0.0117683 0.261475 0.0117683C0.266268 0.0123031 0.268931 0.0122988 0.268931 0.0122988ZM0.261475 0.0117683C0.261475 0.0117683 0.261476 0.0117683 0.260943 0.0117683C0.261476 0.0117683 0.261475 0.0117683 0.261475 0.0117683ZM0.260943 0.0117683C0.260943 0.0117683 0.260943 0.0117683 0.260411 0.0117683C0.260943 0.0117683 0.260943 0.0117683 0.260943 0.0117683ZM0.260411 0.0117683H0.259879H0.260411ZM0.259879 0.0117683C0.259346 0.0117683 0.259346 0.0117683 0.259346 0.0117683C0.259346 0.0117683 0.259346 0.0117683 0.259879 0.0117683ZM0.259346 0.0117683C0.258814 0.0117683 0.258814 0.0117683 0.258814 0.0117683C0.258814 0.0117683 0.258814 0.0117683 0.259346 0.0117683ZM0.258814 0.0117683C0.258814 0.0117683 0.258282 0.0117683 0.25775 0.0117683C0.258282 0.0117683 0.258814 0.0117683 0.258814 0.0117683ZM0.25775 0.0117683C0.25775 0.0117683 0.257218 0.0117683 0.256685 0.0117683C0.257218 0.0117683 0.25775 0.0117683 0.25775 0.0117683ZM0.256685 0.0117683C0.252957 0.0117683 0.248695 0.0112297 0.244968 0.0112297C0.24976 0.0112297 0.25349 0.0117683 0.256685 0.0117683ZM0.244968 0.0112297C0.244435 0.0112297 0.243903 0.0112297 0.243903 0.0112297C0.243903 0.0112297 0.244435 0.0112297 0.244968 0.0112297ZM0.243903 0.0112297C0.23911 0.0106949 0.234317 0.0106993 0.229524 0.0106993C0.23485 0.0106993 0.239643 0.0106949 0.243903 0.0112297ZM0.229524 0.0106993C0.226862 0.0101645 0.2242 0.0101607 0.221004 0.0101607C0.2242 0.0101607 0.226862 0.0101645 0.229524 0.0106993ZM0.221004 0.0101607C0.219939 0.0101607 0.218872 0.0101607 0.217807 0.0101607C0.218872 0.0101607 0.219939 0.0101607 0.221004 0.0101607ZM0.217807 0.0101607C0.217274 0.0101607 0.217275 0.00963022 0.216742 0.00963022C0.217275 0.00963022 0.217274 0.0101607 0.217807 0.0101607ZM0.216742 0.00963022C0.215677 0.00963022 0.214614 0.00963022 0.213017 0.00963022C0.214614 0.00963022 0.215677 0.00963022 0.216742 0.00963022ZM0.213017 0.00963022C0.212484 0.00963022 0.211949 0.00963022 0.210884 0.00963022C0.211949 0.00963022 0.212484 0.00963022 0.213017 0.00963022ZM0.210884 0.00963022H0.210351H0.210884ZM0.210351 0.00963022C0.208221 0.00963022 0.206094 0.00962644 0.203964 0.00909162C0.206094 0.00962644 0.208221 0.00963022 0.210351 0.00963022ZM0.203964 0.00909162C0.201302 0.00909162 0.198635 0.00909162 0.195972 0.00909162C0.198635 0.00909162 0.201302 0.00909162 0.203964 0.00909162ZM0.195972 0.00909162C0.19544 0.00909162 0.19544 0.00909162 0.19544 0.00909162C0.19544 0.00909162 0.19544 0.00909162 0.195972 0.00909162ZM0.19544 0.00909162C0.191712 0.0085568 0.188519 0.00855302 0.185323 0.00855302C0.188519 0.00855302 0.192245 0.0085568 0.19544 0.00909162ZM0.185323 0.00855302C0.184258 0.00855302 0.183727 0.00855302 0.182662 0.00855302C0.183727 0.00855302 0.184258 0.00855302 0.185323 0.00855302ZM0.182662 0.00855302C0.18213 0.00855302 0.18213 0.00855739 0.181598 0.00802257C0.18213 0.00855739 0.18213 0.00855302 0.182662 0.00855302ZM0.181598 0.00802257C0.181065 0.00802257 0.181062 0.00802257 0.180529 0.00802257C0.181062 0.00802257 0.181065 0.00802257 0.181598 0.00802257ZM0.180529 0.00802257C0.179997 0.00802257 0.179465 0.00802257 0.178932 0.00802257C0.179465 0.00802257 0.179997 0.00802257 0.180529 0.00802257ZM0.178932 0.00802257C0.177335 0.00802257 0.17574 0.00802257 0.174142 0.00802257C0.17574 0.00802257 0.177335 0.00802257 0.178932 0.00802257ZM0.174142 0.00802257C0.17361 0.00802257 0.173606 0.00802257 0.173074 0.00802257C0.173606 0.00802257 0.17361 0.00802257 0.174142 0.00802257ZM0.173074 0.00802257C0.172541 0.00802257 0.171477 0.00802257 0.170945 0.00802257C0.171477 0.00802257 0.172541 0.00802257 0.173074 0.00802257ZM0.170945 0.00802257C0.169347 0.00748776 0.168284 0.00748397 0.166687 0.00748397C0.168284 0.00748397 0.169347 0.00748776 0.170945 0.00802257ZM0.166687 0.00748397C0.163491 0.00748397 0.160294 0.00748835 0.156566 0.00695353C0.160294 0.00748835 0.163491 0.00748397 0.166687 0.00748397ZM0.156566 0.00695353C0.156033 0.00695353 0.155502 0.00695353 0.154437 0.00695353C0.155502 0.00695353 0.156033 0.00695353 0.156566 0.00695353ZM0.154437 0.00695353C0.151774 0.00695353 0.14858 0.00695353 0.145917 0.00695353C0.14858 0.00695353 0.151774 0.00695353 0.154437 0.00695353ZM0.145917 0.00695353C0.145384 0.00641871 0.144849 0.00641493 0.144316 0.00641493C0.144849 0.00641493 0.145384 0.00641871 0.145917 0.00695353ZM0.144316 0.00641493C0.114494 0.00534529 0.0846736 0.00374698 0.0596442 0.00267735C0.0809458 0.00374698 0.108636 0.00481048 0.144316 0.00641493ZM0.0596442 0.00267735C0.0591117 0.00267735 0.05858 0.00267735 0.0580475 0.00267735C0.05858 0.00267735 0.0591117 0.00267735 0.0596442 0.00267735ZM0.0580475 0.00267735C0.0484618 0.00214253 0.0399392 0.00214312 0.0319511 0.0016083C0.0394067 0.00214312 0.0479292 0.00214253 0.0580475 0.00267735ZM0.0319511 0.0016083C0.0319511 0.0016083 0.0319514 0.0016083 0.0314189 0.0016083C0.0319514 0.0016083 0.0319511 0.0016083 0.0319511 0.0016083ZM0.0314189 0.0016083C0.0282237 0.0016083 0.0250293 0.0010697 0.0223666 0.0010697C0.0250293 0.0010697 0.0282237 0.0016083 0.0314189 0.0016083ZM0.0223666 0.0010697C0.0218341 0.0010697 0.0218347 0.0010697 0.0213021 0.0010697C0.0218347 0.0010697 0.0218341 0.0010697 0.0223666 0.0010697ZM0.0213021 0.0010697H0.0207699H0.0213021ZM0.0207699 0.0010697C0.0202374 0.0010697 0.0197054 0.0010697 0.0197054 0.0010697C0.0197054 0.0010697 0.0202374 0.0010697 0.0207699 0.0010697ZM0.0197054 0.0010697C0.0186403 0.0010697 0.0181049 0.0010697 0.0175724 0.0010697C0.0181049 0.0010697 0.0186403 0.0010697 0.0197054 0.0010697ZM0.0175724 0.0010697C0.0165073 0.0010697 0.0159762 0.0010697 0.0149111 0.0010697C0.0159762 0.0010697 0.0165073 0.0010697 0.0175724 0.0010697ZM0.0149111 0.0010697L0.0143789 0.000531095L0.0149111 0.0010697ZM0.0143789 0.000531095C0.0138463 0.000531095 0.0133144 0.000531095 0.0133144 0.000531095C0.0133144 0.000531095 0.0138463 0.000531095 0.0143789 0.000531095ZM0.0133144 0.000531095C0.00905407 0.000531095 0.00585598 0.000531095 0.00372582 0.000531095C0.00585598 0.000531095 0.00905407 0.000531095 0.0133144 0.000531095ZM0.00372582 0.000531095C0.00319328 0.000531095 0.00319358 0.000531095 0.00319358 0.000531095C0.00319358 0.000531095 0.00319328 0.000531095 0.00372582 0.000531095ZM0.00319358 0.000531095C0.00106342 -3.72127e-06 9.75108e-08 6.52852e-07 9.75108e-08 6.52852e-07C9.75108e-08 6.52852e-07 0.00106342 -3.72127e-06 0.00319358 0.000531095Z" transform="translate(56.4356 106.832)" fill="#DDF2F9"/>
<path fill-rule="evenodd" clip-rule="evenodd" d="M7.91673 8.32067C6.49112 8.32067 5.15924 7.91207 4.03079 7.20505C1.95016 5.90063 0.561829 3.58167 0.557036 0.94288L0.554907 0.940742C0.554907 0.936464 0.554907 0.932184 0.554907 0.927905C0.554907 0.525723 0.330176 0.177023 1.30014e-06 -1.56685e-06C0.00585923 0.0021377 0.0117156 0.00481204 0.0175736 0.00695131C0.752478 0.305379 1.21898 1.02043 1.34839 1.80554C1.91608 5.24602 5.37332 7.15103 9.08405 7.15103C10.8175 7.15103 12.4092 6.54294 13.6682 5.53268C12.904 6.49321 11.9081 7.26013 10.7653 7.74468C9.88872 8.11584 8.92589 8.32067 7.91673 8.32067Z" transform="translate(57.0919 106.94)" fill="#C0E6F3"/>
<path fill-rule="evenodd" clip-rule="evenodd" d="M8.30548 8.41747C4.25072 8.41747 0.951646 5.10857 0.94419 1.03861L1.10512e-06 -2.02384e-06C0.12142 0.00534614 0.26041 0.0443885 0.404728 0.102683C0.410053 0.104823 0.41485 0.106967 0.420175 0.109106C0.737036 0.289874 0.951114 0.631617 0.951114 1.02364C0.951114 5.10001 4.25285 8.41641 8.3124 8.41641C8.63299 8.41641 8.94879 8.39555 9.25873 8.35544C8.94666 8.39662 8.62873 8.41747 8.30548 8.41747Z" transform="translate(73.5122 106.845)" fill="#DDF2F9"/>
<path fill-rule="evenodd" clip-rule="evenodd" d="M7.89223 8.3073C3.83268 8.3073 0.53094 4.99091 0.53094 0.914535C0.53094 0.522515 0.316863 0.180771 1.88521e-06 3.32955e-06C0.725853 0.30164 1.18703 1.01241 1.31537 1.79217C1.88306 5.23265 5.34084 7.13766 9.05104 7.13766C10.7839 7.13766 12.3767 6.52957 13.6357 5.51931C12.4731 6.98096 10.7738 7.99337 8.83855 8.24634C8.52862 8.28645 8.21282 8.3073 7.89223 8.3073Z" transform="translate(73.9324 106.954)" fill="#C0E6F3"/>
<path fill-rule="evenodd" clip-rule="evenodd" d="M0.268933 0.0122988C0.266803 0.0122988 0.264136 0.0117683 0.261474 0.0117683C0.266267 0.0123031 0.268933 0.0122988 0.268933 0.0122988ZM0.261474 0.0117683H0.260946H0.261474ZM0.260946 0.0117683C0.260946 0.0117683 0.260942 0.0117683 0.260409 0.0117683C0.260942 0.0117683 0.260946 0.0117683 0.260946 0.0117683ZM0.260409 0.0117683H0.259881H0.260409ZM0.259881 0.0117683C0.259349 0.0117683 0.259345 0.0117683 0.259345 0.0117683C0.259345 0.0117683 0.259349 0.0117683 0.259881 0.0117683ZM0.259345 0.0117683C0.258812 0.0117683 0.258817 0.0117683 0.258817 0.0117683C0.258817 0.0117683 0.258812 0.0117683 0.259345 0.0117683ZM0.258817 0.0117683C0.258284 0.0117683 0.258285 0.0117683 0.257752 0.0117683C0.258285 0.0117683 0.258284 0.0117683 0.258817 0.0117683ZM0.257752 0.0117683C0.257752 0.0117683 0.25722 0.0117683 0.256688 0.0117683C0.25722 0.0117683 0.257752 0.0117683 0.257752 0.0117683ZM0.256688 0.0117683C0.25296 0.0112335 0.248698 0.0112297 0.24497 0.0112297C0.249763 0.0112297 0.253492 0.0117683 0.256688 0.0117683ZM0.24497 0.0112297C0.244438 0.0112297 0.243906 0.0112297 0.243906 0.0112297C0.243906 0.0112297 0.244438 0.0112297 0.24497 0.0112297ZM0.243906 0.0112297C0.241243 0.0106949 0.238581 0.0106993 0.235918 0.0106993C0.238581 0.0106993 0.241243 0.0112297 0.243906 0.0112297ZM0.235918 0.0106993C0.233788 0.0106993 0.231653 0.0106993 0.229523 0.0106993C0.231653 0.0106993 0.233788 0.0106993 0.235918 0.0106993ZM0.229523 0.0106993C0.22686 0.0101645 0.224202 0.0101607 0.221007 0.0101607C0.224202 0.0101607 0.22686 0.0101645 0.229523 0.0106993ZM0.221007 0.0101607C0.219942 0.0101607 0.21887 0.0101607 0.217805 0.0101607C0.21887 0.0101607 0.219942 0.0101607 0.221007 0.0101607ZM0.217805 0.0101607C0.217273 0.0101607 0.217273 0.00963022 0.216741 0.00963022C0.217273 0.00963022 0.217273 0.0101607 0.217805 0.0101607ZM0.216741 0.00963022C0.215676 0.00963022 0.214612 0.00963022 0.213547 0.00963022C0.214612 0.00963022 0.215676 0.00963022 0.216741 0.00963022ZM0.213547 0.00963022C0.212482 0.00963022 0.211414 0.00963022 0.210882 0.00963022C0.211414 0.00963022 0.212482 0.00963022 0.213547 0.00963022ZM0.210882 0.00963022C0.208219 0.00963022 0.206089 0.00962644 0.203959 0.00909162C0.206089 0.00962644 0.208219 0.00963022 0.210882 0.00963022ZM0.203959 0.00909162C0.201296 0.00909162 0.198634 0.00909162 0.195971 0.00909162C0.198634 0.00909162 0.201296 0.00909162 0.203959 0.00909162ZM0.195971 0.00909162C0.195438 0.00909162 0.195443 0.00909162 0.195443 0.00909162C0.195443 0.00909162 0.195438 0.00909162 0.195971 0.00909162ZM0.195443 0.00909162C0.191715 0.0085568 0.188521 0.00855302 0.185326 0.00855302C0.188521 0.00855302 0.192247 0.0085568 0.195443 0.00909162ZM0.185326 0.00855302C0.184793 0.00855302 0.183726 0.00855302 0.182661 0.00855302C0.183726 0.00855302 0.184793 0.00855302 0.185326 0.00855302ZM0.182661 0.00855302H0.182124H0.182661ZM0.182124 0.00855302C0.181592 0.0080182 0.181064 0.00802258 0.180532 0.00802258C0.181064 0.00802258 0.181592 0.0080182 0.182124 0.00855302ZM0.180532 0.00802258C0.179999 0.00802258 0.179463 0.00802258 0.178931 0.00802258C0.179463 0.00802258 0.179999 0.00802258 0.180532 0.00802258ZM0.178931 0.00802258C0.177333 0.00802258 0.175734 0.00802258 0.174137 0.00802258C0.175734 0.00802258 0.177333 0.00802258 0.178931 0.00802258ZM0.174137 0.00802258C0.173604 0.00802258 0.173605 0.00802258 0.173072 0.00802258C0.173605 0.00802258 0.173604 0.00802258 0.174137 0.00802258ZM0.173072 0.00802258C0.17254 0.00802258 0.171476 0.00802258 0.170943 0.00802258C0.171476 0.00802258 0.17254 0.00802258 0.173072 0.00802258ZM0.170943 0.00802258C0.169345 0.00748776 0.168283 0.00748397 0.166685 0.00748397C0.168283 0.00748397 0.169345 0.00748776 0.170943 0.00802258ZM0.166685 0.00748397C0.16349 0.00748397 0.160296 0.00748835 0.156568 0.00695353C0.159764 0.00748835 0.16349 0.00748397 0.166685 0.00748397ZM0.156568 0.00695353C0.156036 0.00695353 0.155504 0.00695353 0.154439 0.00695353C0.155504 0.00695353 0.156036 0.00695353 0.156568 0.00695353ZM0.154439 0.00695353C0.151777 0.00695353 0.149111 0.00695353 0.145915 0.00695353C0.148578 0.00695353 0.151777 0.00695353 0.154439 0.00695353ZM0.145915 0.00695353C0.145383 0.00641871 0.144847 0.00641493 0.144315 0.00641493C0.144847 0.00641493 0.145383 0.00641871 0.145915 0.00695353ZM0.144315 0.00641493C0.114492 0.00534529 0.084672 0.00374698 0.0596426 0.00267735C0.0809442 0.00374698 0.108634 0.00481048 0.144315 0.00641493ZM0.0596426 0.00267735C0.0591101 0.00267735 0.0585825 0.00267735 0.0580499 0.00267735C0.0585825 0.00267735 0.0591101 0.00267735 0.0596426 0.00267735ZM0.0580499 0.00267735C0.0484642 0.00214253 0.0399376 0.00214312 0.0319496 0.0016083C0.0394051 0.00214312 0.0479317 0.00214253 0.0580499 0.00267735ZM0.0319496 0.0016083C0.0282218 0.0016083 0.0250318 0.0010697 0.0223691 0.0010697C0.0250318 0.0010697 0.0282218 0.0016083 0.0319496 0.0016083ZM0.0223691 0.0010697C0.0218366 0.0010697 0.0218372 0.0010697 0.0213046 0.0010697C0.0218372 0.0010697 0.0218366 0.0010697 0.0223691 0.0010697ZM0.0213046 0.0010697H0.0207683H0.0213046ZM0.0207683 0.0010697C0.0202358 0.0010697 0.0202364 0.0010697 0.0197038 0.0010697C0.0202364 0.0010697 0.0202358 0.0010697 0.0207683 0.0010697ZM0.0197038 0.0010697C0.0191713 0.0010697 0.0181074 0.0010697 0.0175748 0.0010697C0.0181074 0.0010697 0.0191713 0.0010697 0.0197038 0.0010697ZM0.0175748 0.0010697C0.0165098 0.0010697 0.0159746 0.0010697 0.0149095 0.0010697C0.0159746 0.0010697 0.0165098 0.0010697 0.0175748 0.0010697ZM0.0149095 0.0010697L0.0143814 0.000531095L0.0149095 0.0010697ZM0.0143814 0.000531095C0.0138488 0.000531095 0.0138494 0.000531095 0.0133169 0.000531095C0.0138494 0.000531095 0.0138488 0.000531095 0.0143814 0.000531095ZM0.0133169 0.000531095C0.00905655 0.000531095 0.00585845 0.000531095 0.00372829 0.000531095C0.00585845 0.000531095 0.00905655 0.000531095 0.0133169 0.000531095ZM0.00372829 0.000531095H0.00319198H0.00372829ZM0.00319198 0.000531095C0.00106183 -3.72127e-06 -1.49517e-06 6.52852e-07 -1.49517e-06 6.52852e-07C-1.49517e-06 6.52852e-07 0.00106183 -3.72127e-06 0.00319198 0.000531095Z" transform="translate(73.2434 106.832)" fill="#DDF2F9"/>
<path fill-rule="evenodd" clip-rule="evenodd" d="M8.30495 8.41747C4.2502 8.41747 0.951116 5.10857 0.943661 1.03861L-1.30014e-07 -2.02384e-06C0.120886 0.00534614 0.25988 0.0443885 0.404198 0.102683C0.439346 0.117124 0.473425 0.132102 0.506975 0.148146C0.789221 0.336402 0.975076 0.657823 0.975076 1.02364C0.975076 5.10001 4.27683 8.41641 8.33637 8.41641C8.41412 8.41641 8.4924 8.41534 8.57015 8.41267C8.48228 8.41588 8.39388 8.41747 8.30495 8.41747Z" transform="translate(90.3044 106.845)" fill="#DDF2F9"/>
<path fill-rule="evenodd" clip-rule="evenodd" d="M7.82939 8.26826C3.76985 8.26826 0.468098 4.95187 0.468098 0.875493C0.468098 0.509679 0.282243 0.188258 -2.34026e-06 2.28498e-06C0.67579 0.320892 1.10502 1.00492 1.22803 1.75313C1.79572 5.19361 5.2535 7.09862 8.96423 7.09862C10.6976 7.09862 12.2894 6.49053 13.5483 5.48026C12.25 7.11252 10.2817 8.18537 8.06318 8.26452C7.98543 8.2672 7.90714 8.26826 7.82939 8.26826Z" transform="translate(90.8115 106.993)" fill="#C0E6F3"/>
<path fill-rule="evenodd" clip-rule="evenodd" d="M0.253488 0.0112291C0.250826 0.0112291 0.248163 0.0106987 0.245501 0.0106987C0.250826 0.0112335 0.253488 0.0112291 0.253488 0.0112291ZM0.245501 0.0106987C0.245501 0.0106987 0.245497 0.0106987 0.244964 0.0106987C0.245497 0.0106987 0.245501 0.0106987 0.245501 0.0106987ZM0.244964 0.0106987C0.244432 0.0106987 0.244432 0.0106987 0.2439 0.0106987C0.244432 0.0106987 0.244432 0.0106987 0.244964 0.0106987ZM0.2439 0.0106987H0.243372H0.2439ZM0.243372 0.0106987H0.242835H0.243372ZM0.242835 0.0106987H0.242307H0.242835ZM0.242307 0.0106987C0.241775 0.0106987 0.241243 0.0106987 0.241243 0.0106987C0.241243 0.0106987 0.241775 0.0106987 0.242307 0.0106987ZM0.241243 0.0106987C0.236982 0.0101639 0.233249 0.0101601 0.228989 0.0101601C0.233782 0.0101601 0.237515 0.0106987 0.241243 0.0106987ZM0.228989 0.0101601C0.228456 0.0101601 0.228457 0.0101601 0.227924 0.0101601C0.228457 0.0101601 0.228456 0.0101601 0.228989 0.0101601ZM0.227924 0.0101601C0.225262 0.00962526 0.222603 0.00962964 0.220473 0.00962964C0.223136 0.00962964 0.225262 0.0101601 0.227924 0.0101601ZM0.220473 0.00962964C0.218343 0.00962964 0.216208 0.00962964 0.214078 0.00962964C0.216208 0.00962964 0.218343 0.00962964 0.220473 0.00962964ZM0.214078 0.00962964C0.210883 0.00909482 0.208221 0.00909103 0.205026 0.00909103C0.208221 0.00909103 0.210883 0.00909482 0.214078 0.00962964ZM0.205026 0.00909103C0.203961 0.00909103 0.202897 0.00909103 0.201832 0.00909103C0.202897 0.00909103 0.203961 0.00909103 0.205026 0.00909103ZM0.201832 0.00909103C0.2013 0.00909103 0.2013 0.00856059 0.200768 0.00856059C0.2013 0.00856059 0.2013 0.00909103 0.201832 0.00909103ZM0.200768 0.00856059C0.199703 0.00856059 0.198639 0.00856059 0.197574 0.00856059C0.198639 0.00856059 0.199703 0.00856059 0.200768 0.00856059ZM0.197574 0.00856059C0.196509 0.00856059 0.195974 0.00856059 0.194909 0.00856059C0.195974 0.00856059 0.196509 0.00856059 0.197574 0.00856059ZM0.194909 0.00856059C0.192779 0.00856059 0.190116 0.0085568 0.187986 0.00802199C0.190116 0.0085568 0.192779 0.00856059 0.194909 0.00856059ZM0.187986 0.00802199C0.185323 0.00802199 0.182661 0.00802199 0.179998 0.00802199C0.182661 0.00802199 0.185323 0.00802199 0.187986 0.00802199ZM0.179998 0.00802199H0.17947H0.179998ZM0.17947 0.00802199C0.176274 0.00748717 0.173073 0.00748338 0.169345 0.00748338C0.173073 0.00748338 0.176274 0.00748717 0.17947 0.00802199ZM0.169345 0.00748338C0.168812 0.00748338 0.167753 0.00748338 0.166688 0.00748338C0.167753 0.00748338 0.168812 0.00748338 0.169345 0.00748338ZM0.166688 0.00748338H0.166151H0.166688ZM0.166151 0.00748338C0.165619 0.00694857 0.165091 0.00695294 0.164559 0.00695294C0.165091 0.00695294 0.165619 0.00694857 0.166151 0.00748338ZM0.164559 0.00695294C0.164026 0.00695294 0.164019 0.00695294 0.163486 0.00695294C0.164019 0.00695294 0.164026 0.00695294 0.164559 0.00695294ZM0.163486 0.00695294C0.161356 0.00695294 0.159761 0.00695294 0.158164 0.00695294C0.159761 0.00695294 0.161356 0.00695294 0.163486 0.00695294ZM0.158164 0.00695294C0.157631 0.00695294 0.157635 0.00695294 0.157635 0.00695294C0.157635 0.00695294 0.157631 0.00695294 0.158164 0.00695294ZM0.157635 0.00695294C0.15657 0.00695294 0.155503 0.00695294 0.15497 0.00695294C0.155503 0.00695294 0.15657 0.00695294 0.157635 0.00695294ZM0.15497 0.00695294C0.153372 0.00641813 0.15231 0.00641434 0.150712 0.00641434C0.15231 0.00641434 0.153372 0.00641813 0.15497 0.00695294ZM0.150712 0.00641434C0.147517 0.00641434 0.144315 0.00641871 0.140587 0.0058839C0.144315 0.00641871 0.147517 0.00641434 0.150712 0.00641434ZM0.140587 0.0058839C0.140055 0.0058839 0.139523 0.0058839 0.138458 0.0058839C0.139523 0.0058839 0.140055 0.0058839 0.140587 0.0058839ZM0.138458 0.0058839C0.135796 0.0058839 0.133133 0.0058839 0.13047 0.0058839C0.133133 0.0058839 0.135796 0.0058839 0.138458 0.0058839ZM0.13047 0.0058839C0.129405 0.00534908 0.128874 0.00534529 0.128341 0.00534529C0.128874 0.00534529 0.129405 0.00534908 0.13047 0.0058839ZM0.128341 0.00534529C0.0990518 0.00427566 0.0686989 0.00267735 0.0436696 0.00160771C0.0649711 0.00267735 0.0931939 0.00374084 0.128341 0.00534529ZM0.0436696 0.00160771C0.043137 0.00160771 0.0426013 0.00160771 0.0420688 0.00160771C0.0426013 0.00160771 0.043137 0.00160771 0.0436696 0.00160771ZM0.0420688 0.00160771C0.0324831 0.0010729 0.0239602 0.00107349 0.0165047 0.000538668C0.0234277 0.00107349 0.0319505 0.0010729 0.0420688 0.00160771ZM0.0165047 0.000538668C0.0159721 0.000538668 0.0159765 0.000538668 0.0159765 0.000538668C0.0159765 0.000538668 0.0159721 0.000538668 0.0165047 0.000538668ZM0.0159765 0.000538668C0.0122487 0.000538668 0.00905063 6.52852e-08 0.00638793 6.52852e-08C0.00905063 6.52852e-08 0.0122487 0.000538668 0.0159765 0.000538668ZM0.00638793 6.52852e-08C0.0058554 6.52852e-08 0.00585975 6.52852e-08 0.00585975 6.52852e-08C0.00585975 6.52852e-08 0.0058554 6.52852e-08 0.00638793 6.52852e-08ZM0.00585975 6.52852e-08C0.00532721 6.52852e-08 0.0053278 6.52852e-08 0.00479526 6.52852e-08C0.0053278 6.52852e-08 0.00532721 6.52852e-08 0.00585975 6.52852e-08ZM0.00479526 6.52852e-08C0.00479526 6.52852e-08 0.0042633 6.52852e-08 0.00373076 6.52852e-08C0.0042633 6.52852e-08 0.00479526 6.52852e-08 0.00479526 6.52852e-08ZM0.00373076 6.52852e-08C0.00319823 6.52852e-08 0.00265873 6.52852e-08 0.00159365 6.52852e-08C0.00265873 6.52852e-08 0.00319823 6.52852e-08 0.00373076 6.52852e-08ZM0.00159365 6.52852e-08C0.00106111 6.52852e-08 0.000533514 6.52852e-08 9.75108e-07 6.52852e-08C0.000533514 6.52852e-08 0.00106111 6.52852e-08 0.00159365 6.52852e-08Z" transform="translate(90.0511 106.833)" fill="#DDF2F9"/>
<path fill-rule="evenodd" clip-rule="evenodd" d="M0.0159771 0.0010697C0.0154446 0.0010697 0.0154452 0.0010697 0.0149127 0.0010697C0.0154452 0.0010697 0.0154446 0.0010697 0.0159771 0.0010697ZM0.0149127 0.0010697C0.0149127 0.0010697 0.0149089 0.000531095 0.0143763 0.000531095C0.0149089 0.000531095 0.0149127 0.0010697 0.0149127 0.0010697ZM0.0143763 0.000531095C0.0143763 0.000531095 0.0138444 0.000531095 0.0133119 0.000531095C0.0138444 0.000531095 0.0143763 0.000531095 0.0143763 0.000531095ZM0.0133119 0.000531095C0.00905154 0.000531095 0.00586157 0.000531095 0.00373141 0.000531095C0.00586157 0.000531095 0.00905154 0.000531095 0.0133119 0.000531095ZM0.00373141 0.000531095C0.00373141 0.000531095 0.00372764 0.000531095 0.0031951 0.000531095C0.00372764 0.000531095 0.00373141 0.000531095 0.00373141 0.000531095ZM0.0031951 0.000531095C0.00159749 -3.72127e-06 1.62518e-06 6.52852e-07 1.62518e-06 6.52852e-07C1.62518e-06 6.52852e-07 0.00106495 -3.72127e-06 0.0031951 0.000531095Z" transform="translate(90.035 106.832)" fill="#C0E6F3"/>
<path fill-rule="evenodd" clip-rule="evenodd" d="M8.05886 58.272C7.14875 58.272 6.1971 58.0415 5.25184 57.4521C0.914843 54.747 -0.0442609 51.2622 0.0015375 49.5657C0.0457382 47.9281 0.525556 13.7699 0.559106 11.4039V49.5978C0.559106 53.6742 3.86085 56.9906 7.9204 56.9906C11.9799 56.9906 15.2817 53.6742 15.2817 49.5978C15.2817 49.5395 15.2865 49.4828 15.2955 49.4272C15.3094 49.3785 15.3227 49.3293 15.3365 49.2801L16.1891 51.1349L14.0579 55.3032C14.0579 55.3032 11.3244 58.272 8.05886 58.272ZM0.560705 11.2729L0.621946 9.3518L10.3466 -6.85495e-07C10.3482 0.00160376 10.3498 0.00320965 10.3514 0.0048141C10.3786 0.0475994 10.5554 0.340143 10.6406 0.891004C10.6097 1.10867 10.5107 1.31832 10.3434 1.48519L0.560705 11.2729Z" transform="translate(23.4557 58.2704)" fill="#DDF2F9"/>
<path fill-rule="evenodd" clip-rule="evenodd" d="M7.36129 56.9911C3.30174 56.9911 -4.71302e-07 53.6747 -4.71302e-07 49.5984V11.4044C0.00106461 11.3194 0.0015983 11.275 0.0015983 11.275V11.2734L9.78434 1.48572C9.95156 1.31886 10.0506 1.10921 10.0815 0.891539C10.2365 1.89325 10.0895 3.75013 8.19152 6.5146C6.52893 8.93571 4.94516 10.5107 3.98499 11.5975C3.10204 12.5965 2.6169 13.8812 2.6169 15.2171V49.7053C2.6169 49.7053 2.73938 54.1282 7.04762 54.7791C7.373 54.8283 7.69679 54.8524 8.01791 54.8524C10.9011 54.8524 13.5313 52.9276 14.5138 50.1289C14.5921 49.9053 14.6667 49.6716 14.7364 49.4277C14.7274 49.4834 14.7226 49.5401 14.7226 49.5984C14.7226 53.6747 11.4208 56.9911 7.36129 56.9911ZM9.79233 0.00534892C9.79073 0.00374447 9.78914 0.00213858 9.78754 0.000534131L9.7886 -3.91711e-07C9.7886 -3.91711e-07 9.78967 0.0016052 9.79233 0.00534892Z" transform="translate(24.0152 58.2699)" fill="#C0E6F3"/>
<path fill-rule="evenodd" clip-rule="evenodd" d="M9.50902 19.6053C4.26617 19.6053 -6.82576e-07 15.3209 -6.82576e-07 10.0551V-5.54924e-07L1.15508 0.59953L0.958039 2.78051C0.0532551 13.7608 4.84611 17.0788 7.22549 18.2902C7.63768 18.5004 8.1617 18.587 8.74749 18.587C11.5449 18.5865 15.7387 16.6077 15.7387 16.6077L18.2219 9.46304L18.9493 9.84062C18.9722 12.7441 17.8502 15.0048 16.3095 16.7242C14.582 18.5009 12.1717 19.6053 9.50902 19.6053Z" transform="translate(43.1019 55.9006)" fill="#DDF2F9"/>
<path fill-rule="evenodd" clip-rule="evenodd" d="M8.74324 20.4942C6.90598 20.4942 5.09268 19.984 3.62234 18.8961C-0.028751 16.1942 4.96611e-06 11.9842 4.96611e-06 11.9842L0.441481 -5.54924e-07V10.0551C0.441481 15.3209 4.70765 19.6053 9.9505 19.6053C12.6132 19.6053 15.0235 18.5009 16.751 16.7242C16.1141 17.435 15.4058 18.0538 14.6768 18.587C12.986 19.8246 10.8484 20.4942 8.74324 20.4942Z" transform="translate(42.6603 55.9006)" fill="#C0E6F3"/>
<path fill-rule="evenodd" clip-rule="evenodd" d="M1.04697 7.19596C0.469167 7.19596 1.88521e-06 6.72532 1.88521e-06 6.14558V3.91711e-07L2.09341 1.08728V6.14558C2.09341 6.72532 1.62424 7.19596 1.04697 7.19596Z" transform="translate(51.5658 60.2963)" fill="#DDF2F9"/>
<path fill-rule="evenodd" clip-rule="evenodd" d="M8.46205 9.49032C8.46205 10.0701 7.99288 10.5407 7.41561 10.5407C6.8378 10.5407 6.36864 10.0701 6.36864 9.49032V1.56685e-06H-1.98272e-06V9.00417C-1.98272e-06 13.1116 3.32677 16.4526 7.41561 16.4526C11.505 16.4526 14.8317 13.1116 14.8317 9.00417V1.56685e-06H8.46205V9.49032Z" transform="translate(45.1972 56.9516)" fill="#9BF6B9"/>
<path fill-rule="evenodd" clip-rule="evenodd" d="M17.0668 9.28174L15.7722 8.60948V8.10782C15.8856 6.78789 15.7722 5.82362 15.7722 5.82362L17.1313 9.09616L17.0668 9.28174ZM0.940462 0.906516L-1.36515e-06 0.418227L0.0378085 1.86063e-06L3.22186 0.269548L2.23879 0.86854C2.23879 0.86854 2.23879 0.869078 2.23879 0.869613H0.940462V0.906516Z" transform="translate(44.2569 56.082)" fill="#9BF6B9"/>
<path fill-rule="evenodd" clip-rule="evenodd" d="M7.90166 17.9875C7.31587 17.9875 6.79185 17.9008 6.37966 17.6907C4.00028 16.4793 -0.792574 13.1613 0.11221 2.18098L0.309247 6.2021e-07L1.24971 0.488289V9.45556C1.24971 13.5629 4.57648 16.9039 8.66532 16.9039C12.7547 16.9039 16.0815 13.5629 16.0815 9.45556V8.19125L17.3761 8.86351L14.8928 16.0081C14.8928 16.0081 10.6991 17.987 7.90166 17.9875Z" transform="translate(43.9475 56.5002)" fill="#86E9B5"/>
<path fill-rule="evenodd" clip-rule="evenodd" d="M7.41561 16.4526C3.32677 16.4526 -1.98272e-06 13.1116 -1.98272e-06 9.00417V1.56685e-06H1.29833C1.27064 0.13531 -1.59815 14.3796 7.17437 14.6144C7.27768 14.6171 7.38099 14.6181 7.48111 14.6181C13.2837 14.6187 14.5868 10.0963 14.8317 7.23821V9.00417C14.8317 13.1116 11.505 16.4526 7.41561 16.4526Z" transform="translate(45.1972 56.9516)" fill="#5EED86"/>
<path fill-rule="evenodd" clip-rule="evenodd" d="M10.9442 14.14L10.0932 13.2383V10.5963L0.307829 0.807038C0.101203 0.600598 -0.0015783 0.328911 1.93153e-05 0.0577592C0.131556 0.0433192 0.560779 -1.89327e-06 0.887758 -1.89327e-06C1.08373 -1.89327e-06 1.24243 0.0155104 1.27971 0.0620395C1.33563 0.1321 3.90193 2.83399 6.45546 5.51877C7.60947 6.805 8.80502 8.08054 9.89087 9.13092C10.8846 10.1749 11.5519 10.8755 11.5519 10.8755L10.9442 14.14Z" transform="translate(95.9091 58.9485)" fill="#DDF2F9"/>
<path fill-rule="evenodd" clip-rule="evenodd" d="M10.1341 13.1806L8.39484 11.3365C-0.272232 2.33073 0.000963374 0.00427928 0.000963374 0.00427928C0.000963374 0.00427928 0.0153403 0.0026731 0.0409022 -9.79278e-07C0.0393046 0.271151 0.142086 0.542838 0.348711 0.749278L10.1341 10.5386V13.1806Z" transform="translate(95.868 59.0063)" fill="#C0E6F3"/>
<path fill-rule="evenodd" clip-rule="evenodd" d="M16.6658 13.5892C15.0794 13.5892 13.0584 13.2977 11.317 12.1318C10.6566 11.69 9.84079 10.9803 8.95038 10.1193C8.00406 9.12451 6.76111 7.81795 5.51497 6.50711C2.73512 3.40999 0.194906 0.248689 -3.70541e-06 0.00534764C0.0351439 0.00213874 0.0702985 -1.66477e-06 0.105446 -1.66477e-06C0.372781 -1.66477e-06 0.639579 0.102686 0.844074 0.306451L11.2861 10.7525C12.4785 11.951 14.0628 12.6099 15.7482 12.6099C17.4337 12.6099 19.018 11.951 20.2083 10.7541C21.1434 9.81603 21.7484 8.63515 21.9656 7.35373C21.996 7.3088 22.0264 7.26334 22.0567 7.21788L22.6457 9.15659L19.4031 13.2977C19.4031 13.2977 18.2522 13.5892 16.6658 13.5892Z" transform="translate(96.8493 57.9602)" fill="#DDF2F9"/>
<path fill-rule="evenodd" clip-rule="evenodd" d="M15.7605 12.635C14.075 12.635 12.4907 11.9761 11.2984 10.7776L0.856323 0.331588C0.651828 0.127823 0.385029 0.0251347 0.117695 0.0251347C0.0825469 0.0251347 0.0473923 0.0272751 0.0122447 0.030484C0.00425661 0.0208573 -1.04012e-06 0.0160437 -1.04012e-06 0.0160437C-1.04012e-06 0.0160437 0.0457967 -9.79278e-08 0.149109 -9.79278e-08C0.786026 -9.79278e-08 3.6202 0.594715 11.6088 9.10151C11.6088 9.10151 13.617 11.0889 16.2755 11.0889C18.0238 11.0889 20.0533 10.2294 21.9779 7.37886C21.7606 8.66028 21.1556 9.84116 20.2205 10.7792C19.0303 11.9762 17.446 12.635 15.7605 12.635Z" transform="translate(96.8368 57.935)" fill="#C0E6F3"/>
<path fill-rule="evenodd" clip-rule="evenodd" d="M3.43541 3.61215C2.34956 2.56177 1.15401 1.28623 -2.21025e-06 -1.7627e-06C1.24614 1.31083 2.48909 2.61739 3.43541 3.61215Z" transform="translate(102.364 64.4673)" fill="#C0E6F3"/>
<path fill-rule="evenodd" clip-rule="evenodd" d="M1.56941 69.2026C1.53533 69.1181 0.720546 66.0948 0.375461 64.8128L2.07045e-05 65.153C2.07045e-05 65.153 -0.028204 59.5363 2.01568 58.0083C4.0601 56.4804 11.1807 48.3827 11.1807 48.3827C11.1807 48.3827 9.57507 36.4809 12.1249 32.4029C14.6747 28.325 20.6711 8.1736 41.2095 2.72008C49.0341 0.642849 52.8093 -9.69078e-09 54.4852 -9.69078e-09C57.2086 -9.69078e-09 54.3898 1.69804 54.3898 1.69804C54.3882 1.69804 54.3882 1.69804 54.3882 1.69804C31.1067 1.69804 12.1664 20.7193 12.1664 44.0994V48.8737C12.1664 49.1491 12.0578 49.4133 11.8661 49.6101L2.34373 59.3443C-0.017021 61.7157 -0.117139 65.5011 2.03698 67.9875C2.12805 68.0961 2.22816 68.2041 2.33734 68.3111L1.56941 69.2026Z" transform="translate(10.6206 0.403198)" fill="#DDF2F9"/>
<path fill-rule="evenodd" clip-rule="evenodd" d="M1.54314 66.2894C-0.61098 63.8031 -0.510863 60.0176 1.84988 57.6463L11.3722 47.9121C11.5639 47.7153 11.6726 47.4511 11.6726 47.1756V42.4013C11.6726 19.0213 30.6129 2.85623e-08 53.8944 2.85623e-08C53.8869 0.000534845 18.1237 3.6774 14.895 46.1782C14.7134 48.5683 13.6472 50.8022 11.8004 52.3195L3.01881 60.2728C1.21936 61.9029 -0.148736 64.2684 1.54314 66.2894Z" transform="translate(11.1147 2.10127)" fill="#C0E6F3"/>
<path fill-rule="evenodd" clip-rule="evenodd" d="M108.036 68.7143C106.846 69.9112 105.261 70.5701 103.576 70.5701C101.89 70.5701 100.306 69.9112 99.1138 68.7127L88.6723 58.2667C88.2622 57.8575 87.6003 57.8581 87.1924 58.2699C86.785 58.6811 86.786 59.3465 87.195 59.7556L96.9804 69.5449V107.868C96.9804 111.945 93.6787 115.261 89.6191 115.261C85.5596 115.261 82.2579 111.945 82.2579 107.868C82.2579 107.287 81.7887 106.817 81.2114 106.817C80.6336 106.817 80.1644 107.287 80.1644 107.868C80.1644 111.945 76.8627 115.261 72.8032 115.261C68.7436 115.261 65.4419 111.945 65.4419 107.868C65.4419 107.287 64.9727 106.817 64.3954 106.817C63.8176 106.817 63.3485 107.287 63.3485 107.868C63.3485 111.945 60.0467 115.261 55.9872 115.261C51.9276 115.261 48.6254 111.945 48.6254 107.868C48.6254 107.287 48.1562 106.817 47.5789 106.817C47.0016 106.817 46.5325 107.287 46.5325 107.868C46.5325 111.945 43.2302 115.261 39.1707 115.261C35.1111 115.261 31.8094 111.945 31.8094 107.868C31.8094 107.287 31.3402 106.817 30.7629 106.817C30.1851 106.817 29.7165 107.287 29.7165 107.868C29.7165 111.945 26.4142 115.261 22.3547 115.261C18.2951 115.261 14.9934 111.945 14.9934 107.868V69.5449L24.7777 59.7556C25.1872 59.3465 25.1883 58.6811 24.7804 58.2699C24.3719 57.8581 23.71 57.8575 23.301 58.2667L12.8584 68.7143C10.3992 71.1841 6.39606 71.1846 3.9368 68.7143C1.47753 66.244 1.47753 62.2248 3.94319 59.7476L13.465 50.0134C13.6572 49.8171 13.7653 49.5524 13.7653 49.2769V44.5026C13.7653 21.1226 32.7062 2.10129 55.9872 2.10129C79.2677 2.10129 98.2079 21.1226 98.2079 44.5026V49.2769C98.2079 49.5524 98.316 49.8171 98.5078 50.0134L108.036 59.7545C109.229 60.9509 109.885 62.542 109.885 64.2341C109.885 65.9263 109.229 67.5174 108.036 68.7143ZM109.523 58.2747L100.301 48.8469V44.5026C100.301 19.9636 80.4211 1.91265e-09 55.9872 1.91265e-09C31.5516 1.91265e-09 11.6719 19.9636 11.6719 44.5026V48.8469L2.45634 58.2683C-0.818779 61.5579 -0.818779 66.9104 2.45634 70.2006C4.09496 71.8451 6.24695 72.6677 8.39788 72.6677C9.96567 72.6677 11.5313 72.2254 12.9 71.3526V107.868C12.9 113.104 17.1416 117.362 22.3547 117.362C26.0175 117.362 29.1935 115.256 30.7629 112.19C32.3323 115.256 35.5084 117.362 39.1707 117.362C42.8335 117.362 46.0095 115.256 47.5789 112.19C49.1483 115.256 52.3249 117.362 55.9872 117.362C59.65 117.362 62.8255 115.256 64.3954 112.19C65.9643 115.256 69.1409 117.362 72.8032 117.362C76.466 117.362 79.642 115.256 81.2114 112.19C82.7808 115.256 85.9569 117.362 89.6191 117.362C94.8322 117.362 99.0738 113.104 99.0738 107.868V71.3531C100.408 72.2077 101.955 72.6714 103.576 72.6714C105.821 72.6714 107.93 71.7938 109.516 70.2006C111.104 68.6063 111.977 66.4879 111.977 64.2341C111.977 61.9804 111.104 59.8615 109.523 58.2747Z" transform="translate(9.02301)" fill="#455469"/>
<path fill-rule="evenodd" clip-rule="evenodd" d="M16.9252 11.106C16.9252 15.2134 13.5984 18.5544 9.50902 18.5544C5.42018 18.5544 2.09341 15.2134 2.09341 11.106V2.10183H8.46205V11.5921C8.46205 12.1719 8.93121 12.6425 9.50902 12.6425C10.0863 12.6425 10.5555 12.1719 10.5555 11.5921V2.10183H16.9252V11.106ZM42.8071 1.40363e-06H1.04644C0.469167 1.40363e-06 -1.85271e-06 0.470638 -1.85271e-06 1.05091V11.106C-1.85271e-06 16.3718 4.26564 20.6562 9.50902 20.6562C14.7519 20.6562 19.0186 16.3718 19.0186 11.106V2.10183H42.8071C43.3849 2.10183 43.8535 1.63119 43.8535 1.05091C43.8535 0.470638 43.3849 1.40363e-06 42.8071 1.40363e-06Z" transform="translate(43.1039 54.8498)" fill="#455469"/>
<path fill-rule="evenodd" clip-rule="evenodd" d="M0.306343 11.0261C0.510838 11.2315 0.779237 11.3336 1.0471 11.3336C1.31444 11.3336 1.58231 11.2315 1.7868 11.0261L5.64292 7.15351L9.49957 11.0261C9.70353 11.2315 9.97193 11.3336 10.2393 11.3336C10.5071 11.3336 10.7755 11.2315 10.9795 11.0261C11.3885 10.6159 11.3885 9.95006 10.9795 9.53986L7.12338 5.66671L10.9795 1.79411C11.3885 1.38337 11.3885 0.718059 10.9795 0.307855C10.571 -0.102884 9.90802 -0.10235 9.49957 0.307855L5.64292 4.18046L1.7868 0.307855C1.37834 -0.102884 0.715333 -0.10235 0.306343 0.307855C-0.102115 0.718059 -0.102115 1.38337 0.306343 1.79411L4.16299 5.66671L0.306343 9.53986C-0.102115 9.95006 -0.102115 10.6159 0.306343 11.0261Z" transform="translate(44.5471 27.5753)" fill="#455469"/>
<path fill-rule="evenodd" clip-rule="evenodd" d="M0.306342 11.0263C0.510837 11.2317 0.779237 11.3338 1.04657 11.3338C1.31444 11.3338 1.58284 11.2317 1.78734 11.0263L5.64345 7.15371L9.5001 11.0263C9.7046 11.2317 9.973 11.3338 10.2403 11.3338C10.5077 11.3338 10.7755 11.2317 10.98 11.0263C11.389 10.6161 11.389 9.95026 10.98 9.54006L7.12337 5.66692L10.98 1.79431C11.389 1.38357 11.389 0.71826 10.98 0.308055C10.5716 -0.102684 9.90909 -0.102684 9.5001 0.308055L5.64345 4.18066L1.78734 0.308055C1.37835 -0.102684 0.715332 -0.102149 0.306342 0.308055C-0.102115 0.71826 -0.102115 1.38357 0.306342 1.79431L4.16299 5.66692L0.306342 9.54006C-0.102115 9.95026 -0.102115 10.6161 0.306342 11.0263Z" transform="translate(74.1862 27.5752)" fill="#455469"/>
<path fill-rule="evenodd" clip-rule="evenodd" d="M4.46763 50.3246C4.2232 50.3246 3.97823 50.2316 3.79131 50.0444C3.36581 49.6192 2.96747 49.1614 2.60694 48.6838C2.28742 48.2602 2.36996 47.6564 2.79173 47.335C2.96481 47.204 3.16824 47.1403 3.37007 47.1403C3.65977 47.1403 3.94628 47.2714 4.13479 47.5211C4.44154 47.9276 4.78076 48.3175 5.14396 48.6795C5.51886 49.055 5.52046 49.6647 5.14662 50.0412C4.95917 50.23 4.71313 50.3246 4.46763 50.3246ZM1.10465 43.7298C0.641338 43.7298 0.233945 43.3923 0.158857 42.918C0.0645979 42.3248 0.0113439 41.7194 0.000160594 41.1188C-0.00942511 40.5878 0.411281 40.1487 0.940625 40.1385C1.46464 40.1642 1.90718 40.5509 1.9173 41.083C1.92635 41.5943 1.97215 42.1098 2.05203 42.6158C2.13564 43.1404 1.77937 43.6335 1.25642 43.7175C1.2053 43.7255 1.15417 43.7298 1.10465 43.7298ZM2.24961 36.4098C2.10316 36.4098 1.95458 36.3761 1.81559 36.305C1.34376 36.0637 1.15577 35.484 1.39595 35.0102C1.66701 34.4748 1.97908 33.9539 2.3231 33.4608C2.50948 33.1934 2.80664 33.0501 3.10859 33.0501C3.29871 33.0501 3.49095 33.1067 3.6587 33.2249C4.09219 33.5303 4.19657 34.1309 3.89302 34.5663C3.60066 34.9856 3.33492 35.4284 3.10433 35.8841C2.93498 36.2172 2.59842 36.4098 2.24961 36.4098ZM6.994 30.6108C6.76021 30.6108 6.52643 30.5257 6.34164 30.3535C5.95395 29.9914 5.93211 29.3823 6.29211 28.9924L7.42748 27.7666C7.616 27.5623 7.87269 27.4591 8.12937 27.4591C8.36315 27.4591 8.59747 27.5447 8.78173 27.7169C9.16995 28.0789 9.19179 28.6881 8.83126 29.078L7.69642 30.3038C7.50737 30.5075 7.25121 30.6108 6.994 30.6108ZM12.1016 25.0931C11.8678 25.0931 11.6335 25.0075 11.4487 24.8353C11.061 24.4732 11.0392 23.864 11.4002 23.4752L11.52 23.3453C11.8188 23.0222 12.0888 22.6714 12.3226 22.3018C12.5047 22.013 12.8152 21.8553 13.132 21.8553C13.3078 21.8553 13.4856 21.9034 13.6454 22.005C14.0922 22.2896 14.2243 22.8848 13.941 23.3335C13.6449 23.802 13.3025 24.2475 12.9233 24.6566L12.8035 24.7861C12.6144 24.9904 12.3583 25.0931 12.1016 25.0931ZM14.3388 18.1538H14.3137C13.7844 18.1399 13.3664 17.6987 13.3797 17.1671C13.3941 16.5943 13.426 16.0183 13.4713 15.4428C13.5112 14.9374 13.9314 14.5566 14.4277 14.5566C14.4527 14.5566 14.4778 14.5577 14.5028 14.5593C15.0305 14.6016 15.4241 15.0652 15.3826 15.5953C15.3394 16.136 15.3101 16.6777 15.2963 17.2157C15.283 17.7393 14.8564 18.1538 14.3388 18.1538ZM15.3224 10.6915C15.2537 10.6915 15.1844 10.684 15.1147 10.6685C14.5976 10.5541 14.2711 10.0401 14.3856 9.5208C14.5103 8.95336 14.6418 8.39929 14.7765 7.86287C14.8862 7.42539 15.2787 7.13606 15.7079 7.13606C15.7846 7.13606 15.8624 7.14515 15.9401 7.1644C16.4535 7.2949 16.7645 7.81848 16.6351 8.33351C16.5051 8.85175 16.3779 9.3871 16.2575 9.93636C16.1585 10.3851 15.7623 10.6915 15.3224 10.6915ZM17.4041 3.44957C17.297 3.44957 17.1884 3.43138 17.0819 3.39341C16.5834 3.21478 16.3236 2.66392 16.5014 2.16333C17.092 0.501124 17.272 -2.61141e-07 17.8669 -2.61141e-07C17.9478 -2.61141e-07 18.0362 0.00962632 18.1342 0.0262056C18.1342 0.0262056 19.2823 0.21874 18.8563 1.34346C18.8403 1.38143 18.6252 1.91464 18.3073 2.80993C18.1672 3.20409 17.7976 3.44957 17.4041 3.44957Z" transform="translate(0 23.5437)" fill="#B2BACF"/>
<path fill-rule="evenodd" clip-rule="evenodd" d="M14.0019 19.9422L13.8863 19.9353C13.292 19.8642 12.7041 19.7577 12.1401 19.6208C11.6257 19.4957 11.3099 18.9758 11.4345 18.4587C11.5405 18.018 11.9324 17.7222 12.3643 17.7222C12.4394 17.7222 12.5156 17.7313 12.5917 17.7495C13.0827 17.8688 13.595 17.9613 14.1148 18.0238C14.6409 18.0875 15.0153 18.5667 14.9525 19.0946C14.8939 19.5834 14.4801 19.9422 14.0019 19.9422ZM7.22851 17.0163C7.00804 17.0163 6.78651 16.9414 6.60544 16.7857C6.16184 16.405 5.73155 15.9846 5.32629 15.5364C4.97002 15.1428 4.99931 14.5342 5.39072 14.1764C5.57498 14.009 5.80557 13.9266 6.03563 13.9266C6.29604 13.9266 6.55592 14.0331 6.74497 14.2416C7.09644 14.6299 7.46922 14.9936 7.85159 15.3225C8.25419 15.6685 8.30158 16.2761 7.95703 16.6799C7.76744 16.9023 7.49851 17.0163 7.22851 17.0163ZM2.97193 10.8953C2.59755 10.8953 2.24288 10.6744 2.08791 10.307C1.86851 9.78447 1.66082 9.23575 1.47123 8.67526C1.30082 8.17146 1.56922 7.62488 2.07034 7.45374C2.17205 7.41844 2.2759 7.40186 2.37815 7.40186C2.77755 7.40186 3.15033 7.65483 3.28613 8.05541C3.4608 8.57204 3.65251 9.07798 3.85435 9.55824C4.05991 10.0476 3.83198 10.6129 3.34417 10.8193C3.22222 10.8712 3.09601 10.8953 2.97193 10.8953ZM1.09899 3.6068C0.620237 3.6068 0.206987 3.24794 0.148407 2.75912C0.0205979 1.68735 0.000893049 1.01775 0.00036051 0.990479C-0.014018 0.458337 0.40296 0.0165824 0.931772 0.0021424C0.951476 0.00107277 0.97118 -3.85183e-06 0.990884 -3.85183e-06C1.49893 -3.85183e-06 1.90206 0.425718 1.91697 0.937002C1.91697 0.94342 1.93507 1.55418 2.0517 2.52968C2.11507 3.05755 1.74017 3.5362 1.21455 3.59985L1.09899 3.6068Z" transform="translate(15.1888 105.058)" fill="#B2BACF"/>
</svg>
