<svg width="576" height="122" viewBox="0 0 576 122" version="1.1" xmlns="http://www.w3.org/2000/svg" xmlns:xlink="http://www.w3.org/1999/xlink">
<g id="Canvas" fill="none">
<g id="fr-logo">
<g id="Page 1">
<g id="fr logo.svg">
<g id="Shape">
<path d="M 129.3 51.3L 165.7 51.3L 165.7 60.8L 140.4 60.8L 140.4 69.8L 161.9 69.8L 161.9 78.5L 140.4 78.5L 140.4 97L 129.3 97L 129.3 51.3ZM 168.4 74.2C 168.4 61.1 177.6 50.3 192.8 50.3C 208.1 50.3 217.4 61.1 217.4 74.2C 217.4 87.3 208.2 98.1 192.8 98.1C 177.6 98.1 168.4 87.3 168.4 74.2ZM 205.9 74.2C 205.9 66.3 200.2 61 192.8 61C 185.5 61 179.8 66.3 179.8 74.2C 179.8 82.1 185.5 87.4 192.8 87.4C 200.2 87.4 205.9 82.1 205.9 74.2ZM 225.1 51.3L 246.7 51.3C 258.3 51.3 265.7 57.3 265.7 67.3C 265.7 73.7 262.8 78.3 258.1 81L 258.1 82L 268.4 96.4L 268.4 97.2L 255.8 97.2L 246.8 83.8L 236.2 83.8L 236.2 97.2L 225.1 97.2L 225.1 51.3ZM 246.2 60.8L 236.1 60.8L 236.1 74.5L 246.3 74.5C 251.4 74.5 254.2 72.2 254.2 67.6C 254.3 63.3 251.4 60.8 246.2 60.8ZM 295.7 69.9L 318.8 69.9L 318.8 75C 318.8 88.4 311.5 98.1 296.9 98.1C 281.6 98.1 272.4 87.3 272.4 74.2C 272.4 61.1 281.6 50.3 296.9 50.3C 309 50.3 314.2 56 314.2 56L 307.6 64.4C 307.6 64.4 303.2 60.9 296.8 60.9C 289.4 60.9 283.9 66.2 283.9 74.2C 283.9 82.1 289.4 87.5 296.8 87.5C 303.4 87.5 306.8 83.5 307 79L 307 78.5L 295.9 78.5L 295.9 69.9L 295.7 69.9ZM 358.1 78.6L 338 78.6L 338 87.6L 363.3 87.6L 363.3 97.1L 326.9 97.1L 326.9 51.3L 363.3 51.3L 363.3 60.8L 338 60.8L 338 69.8L 358.2 69.8L 358.2 78.6L 358.1 78.6ZM 372.4 51.3L 394 51.3C 405.6 51.3 413 57.3 413 67.3C 413 73.7 410.1 78.3 405.4 81L 405.4 82L 415.7 96.4L 415.7 97.2L 403.1 97.2L 394.1 83.8L 383.5 83.8L 383.5 97.2L 372.4 97.2L 372.4 51.3ZM 393.5 60.8L 383.4 60.8L 383.4 74.5L 393.6 74.5C 398.7 74.5 401.5 72.2 401.5 67.6C 401.5 63.3 398.6 60.8 393.5 60.8ZM 419.1 74.2C 419.1 61.1 428.3 50.3 443.5 50.3C 458.8 50.3 468.1 61.1 468.1 74.2C 468.1 87.3 458.9 98.1 443.5 98.1C 428.3 98.1 419.1 87.3 419.1 74.2ZM 456.7 74.2C 456.7 66.3 451 61 443.6 61C 436.3 61 430.6 66.3 430.6 74.2C 430.6 82.1 436.3 87.4 443.6 87.4C 450.9 87.4 456.7 82.1 456.7 74.2ZM 515 92.5C 515 92.5 509.9 98.1 498.7 98.1C 483.4 98.1 474.1 87.3 474.1 74.2C 474.1 61.1 483.3 50.3 498.7 50.3C 510 50.3 515 55.9 515 55.9L 508.7 64.4C 508.7 64.4 504 61 498.9 61C 491.1 61 485.6 66.3 485.6 74.3C 485.6 82.2 491.1 87.6 498.9 87.6C 505.4 87.6 508.7 84.2 508.7 84.2L 515 92.5ZM 531.9 71L 550.6 51.3L 564.1 51.3L 564.1 52.3L 546.5 71L 564.1 96L 564.1 97.1L 550.7 97.1C 546.7 91.1 542.8 85.1 538.8 79.1L 531.9 86.4L 531.9 97.1L 520.8 97.1L 520.8 51.3L 531.9 51.3L 531.9 71ZM 572.1 50.6C 572.8 50.6 573.4 50.8 574 51.1C 574.6 51.4 575.1 51.9 575.5 52.6C 575.9 53.2 576 53.9 576 54.6C 576 55.3 575.8 55.9 575.5 56.6C 575.2 57.3 574.7 57.7 574 58.1C 573.4 58.4 572.7 58.6 572 58.6C 571.3 58.6 570.7 58.4 570 58.1C 569.4 57.8 568.9 57.3 568.5 56.6C 568.1 55.9 568 55.3 568 54.6C 568 53.9 568.2 53.3 568.5 52.6C 568.8 51.9 569.3 51.5 570 51.1C 570.7 50.8 571.4 50.6 572.1 50.6ZM 572.1 51.4C 571.6 51.4 571 51.5 570.5 51.8C 570 52.1 569.6 52.5 569.3 53C 569 53.5 568.9 54 568.9 54.6C 568.9 55.2 569 55.7 569.3 56.2C 569.6 56.7 570 57.1 570.5 57.4C 571 57.7 571.5 57.8 572.1 57.8C 572.7 57.8 573.2 57.7 573.7 57.4C 574.2 57.1 574.6 56.7 574.9 56.2C 575.2 55.7 575.3 55.2 575.3 54.6C 575.3 54 575.2 53.5 574.9 53C 574.6 52.5 574.2 52.1 573.7 51.8C 573.1 51.5 572.6 51.4 572.1 51.4ZM 570.3 56.7L 570.3 52.5L 572.4 52.5C 572.7 52.5 572.9 52.6 573.1 52.7C 573.3 52.8 573.4 52.9 573.5 53.1C 573.6 53.3 573.7 53.5 573.7 53.7C 573.7 54 573.6 54.3 573.4 54.5C 573.2 54.7 572.9 54.8 572.6 54.9C 572.7 54.9 572.8 55 572.9 55.1L 573.2 55.4C 573.2 55.4 573.3 55.6 573.5 55.9L 574 56.7L 573 56.7L 572.7 56C 572.5 55.5 572.3 55.3 572.1 55.1C 571.9 55 571.8 54.9 571.5 54.9L 571.3 54.9L 571.3 56.6L 570.3 56.6L 570.3 56.7ZM 571.1 54.3L 571.4 54.3C 571.9 54.3 572.2 54.3 572.3 54.2C 572.4 54.2 572.5 54.1 572.6 54C 572.7 53.9 572.7 53.8 572.7 53.7C 572.7 53.6 572.7 53.5 572.6 53.4C 572.5 53.3 572.4 53.2 572.3 53.2C 572.2 53.2 571.9 53.1 571.4 53.1L 571.1 53.1L 571.1 54.3ZM 73.4 10.5L 37.3 73.9L 49 94.6L 85 31L 73.4 10.5ZM 91.2 41.9L 55.2 105.4L 64.5 122L 82.2 122L 109.4 74.1L 91.2 41.9ZM 32.6 11.5L 0.1 68.8L 28.3 68.8L 67.4 0L 32.6 11.5ZM 52.3 122L 28.1 79.5L 0 79.4L 24.1 122L 52.3 122Z" fill="white"/>
</g>
</g>
</g>
</g>
</g>
</svg>

