<svg width="24" height="24" viewBox="0 0 24 24" fill="none" xmlns="http://www.w3.org/2000/svg">
<path d="M5.49998 0H18.5C21.5376 0 24 2.46244 24 5.49998V18.5C24 21.5376 21.5376 24 18.5 24H5.49998C2.46244 24 0 21.5376 0 18.5V5.49998C0 2.46244 2.46244 0 5.49998 0Z" fill="#CFD8DC"/>
<path d="M15.6162 9.60502C15.6362 9.405 15.6471 9.20503 15.6471 9C15.6471 8.79501 15.6351 8.589 15.6151 8.38298L17.2061 7.13498C17.5551 6.84605 17.6428 6.3465 17.4131 5.95598L15.7131 3.01097C15.478 2.62106 14.9962 2.45723 14.5721 2.62298L12.7191 3.36797C12.3884 3.13191 12.037 2.92636 11.6691 2.75395L11.3881 0.758953C11.3007 0.321234 10.9186 0.00459375 10.4722 0H7.07221C6.61438 0.00867187 6.22771 0.342375 6.15219 0.794016L5.87221 2.769C5.50541 2.94216 5.15441 3.14691 4.82319 3.381L2.96118 2.63002C2.53733 2.47387 2.06239 2.64202 1.83116 3.03L0.131144 5.96198C-0.106372 6.36005 -0.0137468 6.8723 0.348128 7.16198L1.92411 8.397C1.9041 8.59702 1.89313 8.79698 1.89313 9.00201C1.89313 9.207 1.90513 9.41301 1.92514 9.61903L0.338144 10.864C-0.0108876 11.153 -0.0985908 11.6525 0.131144 12.043L1.83116 14.988C2.06488 15.3779 2.54549 15.5426 2.96914 15.378L4.82216 14.632C5.15277 14.8681 5.50424 15.0737 5.87216 15.246L6.15318 17.2401C6.24079 17.6791 6.6245 17.9964 7.07216 18H10.4721C10.9303 17.9913 11.3171 17.6571 11.3922 17.205L11.6691 15.231C12.0358 15.058 12.3868 14.8536 12.7182 14.62L14.5812 15.369C15.0052 15.5296 15.4833 15.3606 15.7122 14.9691L17.4122 12.0381C17.6492 11.6399 17.5566 11.128 17.1952 10.8381L15.6162 9.60502ZM10.7722 9C10.7722 10.1046 9.87674 11 8.77218 11C7.66761 11 6.77216 10.1046 6.77216 9C6.77216 7.89544 7.66761 6.99998 8.77218 6.99998C9.87674 6.99998 10.7722 7.89544 10.7722 9Z" transform="translate(3.22852 3)" fill="#455A64"/>
</svg>
